<?xml version="1.0" encoding="UTF-8"?>
<svg version="1.1" xmlns="http://www.w3.org/2000/svg" width="323" height="299">
<path d="M0 0 C11.45594739 9.27978371 18.59103175 22.69958561 26.25390625 35.08203125 C27.20355449 36.57737743 28.15394405 38.07225341 29.10546875 39.56640625 C34.47107727 48.16304425 38.83936077 57.22519932 43.12890625 66.39453125 C43.67708008 67.5635498 44.22525391 68.73256836 44.79003906 69.93701172 C52.50689465 86.75537179 57.5246842 101.93730874 51.25390625 120.08203125 C45.25950067 134.34594685 34.35446164 144.521477 20.44140625 150.95703125 C11.87870154 153.97916232 2.01530039 154.45298734 -6.5546875 151.1875 C-18.11002338 145.3583377 -24.75883483 136.13912098 -28.74609375 124.08203125 C-29.69737446 119.4599114 -29.87886864 114.97817092 -29.84375 110.27734375 C-29.84233505 109.55336395 -29.8409201 108.82938416 -29.83946228 108.08346558 C-29.8339045 105.79127718 -29.82136008 103.49918968 -29.80859375 101.20703125 C-29.80357328 99.64453267 -29.79901134 98.08203254 -29.79492188 96.51953125 C-29.78394894 92.7069929 -29.76671385 88.89452913 -29.74609375 85.08203125 C-26.024191 85.61748729 -25.00860772 85.79810505 -22.3515625 88.671875 C-21.53249349 89.77819567 -20.72710758 90.89474004 -19.93359375 92.01953125 C-19.05930634 93.20495297 -18.18429742 94.38984288 -17.30859375 95.57421875 C-16.87804687 96.16557617 -16.4475 96.75693359 -16.00390625 97.36621094 C-14.1964066 99.83187622 -12.32579144 102.24344706 -10.43359375 104.64453125 C-9.83933594 105.40894531 -9.24507813 106.17335938 -8.6328125 106.9609375 C-5.51118389 110.47034606 -2.87223189 112.77490267 1.69140625 114.01953125 C5.92774146 114.09385292 7.82814639 113.57349297 11.25390625 111.08203125 C13.98076328 106.68387474 14.90943955 103.08716613 14.07421875 97.8359375 C12.09477734 91.1906699 8.5870679 85.12829553 5.25390625 79.08203125 C4.88088379 78.40076172 4.50786133 77.71949219 4.12353516 77.01757812 C-10.19802129 48.55943662 -10.19802129 48.55943662 -32.74609375 29.08203125 C-37.94485177 28.36103561 -42.83740868 28.01357091 -47.30859375 31.08203125 C-48.11296875 31.74203125 -48.91734375 32.40203125 -49.74609375 33.08203125 C-50.40609375 33.08203125 -51.06609375 33.08203125 -51.74609375 33.08203125 C-51.98070312 33.61699219 -52.2153125 34.15195313 -52.45703125 34.703125 C-54.11777754 37.76795679 -56.21880402 40.4176776 -58.37109375 43.14453125 C-61.69334398 47.3964324 -64.92703218 51.68591529 -68.05859375 56.08203125 C-73.61310801 63.71112312 -73.61310801 63.71112312 -76.74609375 66.08203125 C-80.76339449 65.74892174 -83.181439 64.33593764 -86.37109375 61.95703125 C-90.00475587 59.31042362 -93.67736357 56.82943038 -97.49609375 54.45703125 C-101.53993082 51.91601023 -105.18429556 49.25877018 -108.74609375 46.08203125 C-108.22251972 41.36986502 -106.06577438 38.08139504 -103.43359375 34.26953125 C-102.99281494 33.62153564 -102.55203613 32.97354004 -102.09790039 32.3059082 C-96.8858751 24.71758512 -91.41501991 17.33400854 -85.74609375 10.08203125 C-84.99714844 9.10878906 -84.24820313 8.13554688 -83.4765625 7.1328125 C-62.90316984 -17.79190996 -25.00582059 -17.46494724 0 0 Z " fill="#EF9924" transform="translate(206.74609375,85.91796875)"/>
<path d="M0 0 C2.87357672 2.45340668 4.20524568 4.07224813 4.69921875 7.859375 C4.23499848 11.72787729 3.01108736 13.22073872 0.32421875 15.984375 C-2.67578125 17.984375 -2.67578125 17.984375 -5.5859375 17.80078125 C-8.80990886 16.94893547 -10.50915244 15.95968703 -13.11328125 13.921875 C-34.05190344 -1.34325824 -59.11004322 -8.16562207 -84.87719727 -4.24365234 C-93.6326236 -2.68737128 -101.61468846 0.28704478 -109.67578125 3.984375 C-110.61808594 4.41363281 -111.56039062 4.84289062 -112.53125 5.28515625 C-123.87702042 10.96642091 -135.06117548 19.80184597 -142.67578125 29.984375 C-143.46339844 30.99886719 -144.25101563 32.01335937 -145.0625 33.05859375 C-157.08201952 48.90332989 -165.95759764 68.6703784 -165.73828125 88.796875 C-165.73376953 89.58513672 -165.72925781 90.37339844 -165.72460938 91.18554688 C-165.71289437 93.11852261 -165.69496123 95.05145893 -165.67578125 96.984375 C-150.32631558 97.82061295 -150.32631558 97.82061295 -136.82421875 91.3828125 C-135.26776228 89.62405774 -135.26776228 89.62405774 -133.67578125 86.984375 C-129.20380539 87.86613884 -126.34013973 90.36031061 -122.92578125 93.234375 C-122.32378906 93.71261719 -121.72179687 94.19085938 -121.1015625 94.68359375 C-118.51275834 96.84973601 -116.8347655 98.30992627 -116.046875 101.65234375 C-117.09866783 105.55246995 -119.70313652 106.57264274 -123.0234375 108.578125 C-137.2835354 116.1387071 -156.08237137 120.08474745 -172.17578125 120.296875 C-172.90925781 120.32587891 -173.64273438 120.35488281 -174.3984375 120.38476562 C-179.61798233 120.44545801 -182.59240344 119.50929085 -186.67578125 115.984375 C-190.92387205 111.3338335 -190.08872587 105.41878872 -189.98828125 99.484375 C-189.97027466 97.8590686 -189.97027466 97.8590686 -189.9519043 96.20092773 C-189.81851948 88.64113016 -189.43409763 81.36186118 -187.67578125 73.984375 C-187.23298828 72.09525391 -187.23298828 72.09525391 -186.78125 70.16796875 C-182.57314404 53.68328998 -174.94548806 37.55578242 -164.67578125 23.984375 C-163.99128906 23.07945313 -163.30679688 22.17453125 -162.6015625 21.2421875 C-142.47675161 -4.26610063 -115.60520387 -20.91024601 -83.02587891 -24.78857422 C-52.99173536 -27.69027311 -23.97025356 -18.05642458 0 0 Z " fill="#F2B416" transform="translate(236.67578125,60.015625)"/>
<path d="M0 0 C0.99 0.33 1.98 0.66 3 1 C3.07528812 5.31922178 3.12912646 9.63807568 3.16479492 13.95776367 C3.17969533 15.42104766 3.20002282 16.88428853 3.22631836 18.34741211 C3.49232768 33.55167035 2.09002188 47.67725298 -8.75 59.25 C-16.62107751 66.71857923 -24.16678045 69.35848319 -34.84765625 69.203125 C-45.49684701 68.51693179 -53.75661086 63.49025303 -61.07421875 55.828125 C-70.23826879 44.61657571 -74.86557266 31.4903275 -74 17 C-68.41560997 14.41322533 -62.8394013 12.73889781 -56.875 11.25 C-55.55435547 10.90001953 -55.55435547 10.90001953 -54.20703125 10.54296875 C-46.27572544 8.54518885 -46.27572544 8.54518885 -42 10 C-41.97421875 10.71285156 -41.9484375 11.42570313 -41.921875 12.16015625 C-41.5452049 18.52074446 -40.91489616 22.88888557 -37 28 C-33.99644863 29.94824954 -32.20922636 30 -28.625 30 C-20.92688268 27.87638143 -16.40998184 21.32397458 -11.9375 15.0625 C-8.15439007 9.83773189 -4.2564811 4.85099703 0 0 Z " fill="#F4B019" transform="translate(157,170)"/>
<path d="M0 0 C5.18547186 2.78958139 8.60092365 6.91898113 10.86328125 12.28125 C11.79808008 19.37919925 11.18884434 24.55280158 6.86328125 30.28125 C2.53002849 34.39228467 -1.06487022 36.11416544 -7.01171875 36.59375 C-12.5579386 36.42663226 -16.64850115 34.53270571 -20.88671875 30.96875 C-25.23089987 25.77986699 -26.7671276 21.52965364 -26.5546875 14.8125 C-25.64327429 9.29291343 -22.51698615 5.56292687 -18.51171875 1.84375 C-13.21619376 -1.64014802 -5.98846075 -2.01439996 0 0 Z " fill="#EA852B" transform="translate(261.13671875,73.71875)"/>
<path d="M0 0 C2.34168764 3.51253146 2.49623677 4.86469356 2 9 C-0.09258851 12.17496188 -1.82691286 13.88460857 -5 16 C-9.41232657 15.72163846 -11.9916051 14.63402025 -15.4375 11.9375 C-36.37533133 -3.32705667 -61.43546612 -10.15181195 -87.2019043 -6.2277832 C-98.65470955 -4.19294937 -109.48584767 0.06261369 -119.36328125 6.21484375 C-119.90339844 6.47394531 -120.44351563 6.73304687 -121 7 C-121.66 6.67 -122.32 6.34 -123 6 C-119.25 3 -119.25 3 -117 3 C-116.34 1.02 -115.68 -0.96 -115 -3 C-114.071875 -3.144375 -113.14375 -3.28875 -112.1875 -3.4375 C-109.21263023 -3.96247702 -106.68365308 -4.6892486 -103.9375 -5.9375 C-93.61714314 -9.67039504 -83.1863814 -9.23737561 -72.375 -9.125 C-70.68620323 -9.11494957 -68.99740066 -9.10582737 -67.30859375 -9.09765625 C-63.20558406 -9.07580739 -59.10285718 -9.04139154 -55 -9 C-55 -8.34 -55 -7.68 -55 -7 C-52.03 -7.33 -49.06 -7.66 -46 -8 C-46 -7.34 -46 -6.68 -46 -6 C-45.30132812 -6 -44.60265625 -6 -43.8828125 -6 C-33.75 -6 -33.75 -6 -30 -5 C-30.33 -4.34 -30.66 -3.68 -31 -3 C-30.34 -2.67 -29.68 -2.34 -29 -2 C-29 -1.34 -29 -0.68 -29 0 C-27.02 0.495 -27.02 0.495 -25 1 C-25 1.66 -25 2.32 -25 3 C-22.36 3.33 -19.72 3.66 -17 4 C-16.67 3.34 -16.34 2.68 -16 2 C-14.68 3.32 -13.36 4.64 -12 6 C-13.485 6.495 -13.485 6.495 -15 7 C-13.30820672 9.04219706 -12.36272334 9.91793306 -9.73828125 10.51171875 C-8.53751953 10.59873047 -8.53751953 10.59873047 -7.3125 10.6875 C-6.50425781 10.75324219 -5.69601563 10.81898437 -4.86328125 10.88671875 C-4.24839844 10.92410156 -3.63351563 10.96148437 -3 11 C-3 10.01 -3 9.02 -3 8 C-2.01 7.01 -2.01 7.01 -1 6 C-2.32 6 -3.64 6 -5 6 C-5 5.34 -5 4.68 -5 4 C-4.34 4 -3.68 4 -3 4 C-3 3.34 -3 2.68 -3 2 C-6.01031744 1.06576355 -6.86650268 0.95550089 -10 2 C-10.495 0.515 -10.495 0.515 -11 -1 C-11.99 0.485 -11.99 0.485 -13 2 C-13.66 2 -14.32 2 -15 2 C-15 0.02 -15 -1.96 -15 -4 C-14.01 -4.495 -14.01 -4.495 -13 -5 C-15.90600261 -6.25664978 -17.79604584 -7 -21 -7 C-22.34919532 -8.65385233 -23.68133728 -10.321702 -25 -12 C-28.43161179 -14.26156567 -31.70762691 -14.38245761 -35.75 -14.625 C-36.92046875 -14.69976562 -38.0909375 -14.77453125 -39.296875 -14.8515625 C-40.18890625 -14.90054688 -41.0809375 -14.94953125 -42 -15 C-41.67 -16.32 -41.34 -17.64 -41 -19 C-41.68707031 -19.04898438 -42.37414062 -19.09796875 -43.08203125 -19.1484375 C-43.98308594 -19.22320312 -44.88414062 -19.29796875 -45.8125 -19.375 C-46.70582031 -19.44460937 -47.59914063 -19.51421875 -48.51953125 -19.5859375 C-51 -20 -51 -20 -54 -22 C-54.66 -21.67 -55.32 -21.34 -56 -21 C-58.05531164 -21.20553116 -60.11008739 -21.41935436 -62.16015625 -21.671875 C-65.49899968 -22.05765608 -68.83722984 -22.35556028 -72.1875 -22.625 C-73.33605469 -22.72039063 -74.48460937 -22.81578125 -75.66796875 -22.9140625 C-78.96006983 -22.99897015 -81.76802323 -22.5804196 -85 -22 C-87.39504411 -21.87903818 -89.79103253 -21.77588394 -92.1875 -21.6875 C-98.27968871 -21.32737062 -103.22693618 -20.22459232 -108.828125 -17.83984375 C-111 -17 -111 -17 -114 -17 C-114 -16.34 -114 -15.68 -114 -15 C-114.61488281 -14.73445313 -115.22976562 -14.46890625 -115.86328125 -14.1953125 C-116.67152344 -13.84210937 -117.47976562 -13.48890625 -118.3125 -13.125 C-119.51326172 -12.60292969 -119.51326172 -12.60292969 -120.73828125 -12.0703125 C-123.1961834 -10.97428106 -123.1961834 -10.97428106 -126 -9 C-128.33199388 -8.92094936 -130.66832622 -8.91201231 -133 -9 C-123.33970526 -20.52079594 -100.86485139 -25.03306753 -86.71484375 -26.71875 C-55.49100253 -29.08270012 -24.16509084 -20.63170781 0 0 Z " fill="#DD9746" transform="translate(239,62)"/>
<path d="M0 0 C4.65033965 2.29535996 7.39265283 5.43302536 9.078125 10.33984375 C10.03195966 15.33518401 9.25084842 19.53087038 6.46484375 23.79296875 C3.286587 27.33829177 -0.4834531 29.17480673 -5.23046875 29.49609375 C-10.37433089 29.1491216 -13.98700471 27.8062771 -17.921875 24.33984375 C-20.94375331 19.90775557 -21.81993232 15.61593053 -20.921875 10.33984375 C-19.24972925 5.43289223 -16.48697216 2.29184683 -11.84375 0 C-7.74260235 -1.40872755 -4.10114765 -1.40872755 0 0 Z " fill="#E8832C" transform="translate(279.921875,121.66015625)"/>
<path d="M0 0 C3.57318292 1.29136084 6.37557245 2.79692447 9.375 5.125 C10.08398438 5.66382812 10.79296875 6.20265625 11.5234375 6.7578125 C18.34965086 12.93801197 23.36882697 20.2203426 28.3125 27.9375 C29.29742432 29.4685437 29.29742432 29.4685437 30.30224609 31.03051758 C32.21185866 34.01390665 34.10788371 37.00549317 36 40 C36.71857178 41.12438477 36.71857178 41.12438477 37.45166016 42.27148438 C43.36330789 51.5775621 48.21000647 61.33371405 52.875 71.3125 C53.4230127 72.48127686 53.97102539 73.65005371 54.53564453 74.85424805 C62.25317115 91.67245171 67.27078574 106.85525496 61 125 C55.56570142 137.93111973 46.19611546 147.31746389 34 154 C33.29617187 154.41121094 32.59234375 154.82242188 31.8671875 155.24609375 C30 156 30 156 27 155 C27.33 154.34 27.66 153.68 28 153 C29.65 153 31.3 153 33 153 C33 152.34 33 151.68 33 151 C34.65 150.67 36.3 150.34 38 150 C38.33 147.69 38.66 145.38 39 143 C40.98 143 42.96 143 45 143 C45.04125 142.2575 45.0825 141.515 45.125 140.75 C46 138 46 138 49.0625 136.125 C50.031875 135.42375 51.00125 134.7225 52 134 C52.50125283 130.33142278 52.50125283 130.33142278 52 127 C52.78375 126.938125 53.5675 126.87625 54.375 126.8125 C55.674375 126.4103125 55.674375 126.4103125 57 126 C58.37466625 123.52363988 58.37466625 123.52363988 59 121 C59.66 121 60.32 121 61 121 C61.59645009 107.80897487 61.59645009 107.80897487 59 95 C58.01 94.505 58.01 94.505 57 94 C56.87625 92.88625 56.7525 91.7725 56.625 90.625 C56.42930699 86.95953496 56.42930699 86.95953496 54.03125 85.5859375 C51.40637762 83.53651791 51.32867706 82.24330833 50.875 79 C50.22846193 74.56659606 49.32938396 72.13947197 45.8125 69.125 C45.214375 68.42375 44.61625 67.7225 44 67 C44.17917969 66.236875 44.35835937 65.47375 44.54296875 64.6875 C45.13791746 61.18899818 44.27401049 59.90710977 42.5 56.875 C41.95085937 55.92496094 41.40171875 54.97492188 40.8359375 53.99609375 C38.40087371 50.02227688 35.89520676 46.0994786 33.3203125 42.21484375 C32 40 32 40 32 38 C30.35 37.67 28.7 37.34 27 37 C27 35.35 27 33.7 27 32 C26.01 31.67 25.02 31.34 24 31 C22.9375 28.8125 22.9375 28.8125 22 26 C21.62875 24.906875 21.2575 23.81375 20.875 22.6875 C20.58625 21.800625 20.2975 20.91375 20 20 C19.34 20 18.68 20 18 20 C17.525625 19.195625 17.05125 18.39125 16.5625 17.5625 C15.20016328 14.7081924 15.20016328 14.7081924 12 14 C11.67 12.35 11.34 10.7 11 9 C9.68 8.67 8.36 8.34 7 8 C7 7.34 7 6.68 7 6 C6.030625 5.7525 5.06125 5.505 4.0625 5.25 C3.051875 4.8375 2.04125 4.425 1 4 C0.125 1.875 0.125 1.875 0 0 Z " fill="#D48740" transform="translate(197,81)"/>
<path d="M0 0 C0.99 1.485 0.99 1.485 2 3 C4.17897492 4.00805555 4.17897492 4.00805555 6.625 4.6875 C7.44226563 4.93886719 8.25953125 5.19023438 9.1015625 5.44921875 C9.72804688 5.63097656 10.35453125 5.81273437 11 6 C7.54785147 8.30143236 6.76520676 8.13833854 2.8125 7.625 C1.91144531 7.51414062 1.01039063 7.40328125 0.08203125 7.2890625 C-0.60503906 7.19367187 -1.29210937 7.09828125 -2 7 C-1.67 5.68 -1.34 4.36 -1 3 C-1.68707031 2.95101562 -2.37414062 2.90203125 -3.08203125 2.8515625 C-3.98308594 2.77679688 -4.88414062 2.70203125 -5.8125 2.625 C-6.70582031 2.55539063 -7.59914063 2.48578125 -8.51953125 2.4140625 C-11 2 -11 2 -14 0 C-14.66 0.33 -15.32 0.66 -16 1 C-18.05531164 0.79446884 -20.11008739 0.58064564 -22.16015625 0.328125 C-25.49899968 -0.05765608 -28.83722984 -0.35556028 -32.1875 -0.625 C-33.33605469 -0.72039063 -34.48460937 -0.81578125 -35.66796875 -0.9140625 C-38.96006983 -0.99897015 -41.76802323 -0.5804196 -45 0 C-47.39504411 0.12096182 -49.79103253 0.22411606 -52.1875 0.3125 C-58.27968871 0.67262938 -63.22693618 1.77540768 -68.828125 4.16015625 C-71 5 -71 5 -74 5 C-74 5.66 -74 6.32 -74 7 C-74.61488281 7.26554687 -75.22976562 7.53109375 -75.86328125 7.8046875 C-76.67152344 8.15789063 -77.47976562 8.51109375 -78.3125 8.875 C-79.51326172 9.39707031 -79.51326172 9.39707031 -80.73828125 9.9296875 C-83.1961834 11.02571894 -83.1961834 11.02571894 -86 13 C-88.33199388 13.07905064 -90.66832622 13.08798769 -93 13 C-83.33970526 1.47920406 -60.86485139 -3.03306753 -46.71484375 -4.71875 C-30.9515619 -5.91218459 -15.07587166 -5.21280139 0 0 Z " fill="#E6AF41" transform="translate(199,40)"/>
<path d="M0 0 C-0.268125 1.2375 -0.53625 2.475 -0.8125 3.75 C-0.99167969 4.58015625 -1.17085938 5.4103125 -1.35546875 6.265625 C-1.7834348 8.08123854 -2.2652503 9.88503027 -2.80078125 11.671875 C-5.37791653 20.51474678 -5.29167729 28.88238382 -5 38 C10.34946567 38.83623795 10.34946567 38.83623795 23.8515625 32.3984375 C25.40801897 30.63968274 25.40801897 30.63968274 27 28 C31.47197586 28.88176384 34.33564152 31.37593561 37.75 34.25 C38.35199219 34.72824219 38.95398438 35.20648438 39.57421875 35.69921875 C42.20112073 37.89723878 43.85867992 39.2882793 44.5390625 42.71484375 C43.74049479 46.10007645 41.84908191 47.16844735 39 49 C38.34 49 37.68 49 37 49 C37.33 47.02 37.66 45.04 38 43 C38.66 43 39.32 43 40 43 C40.495 42.01 40.495 42.01 41 41 C38.60931266 39.89363605 38.60931266 39.89363605 36 39 C35.01 39.495 35.01 39.495 34 40 C33.566875 38.865625 33.13375 37.73125 32.6875 36.5625 C31.8521875 34.7990625 31.8521875 34.7990625 31 33 C30.01 32.67 29.02 32.34 28 32 C27.67 32.99 27.34 33.98 27 35 C16.57207238 42.09986561 6.18153069 42.40806616 -6 42 C-8.13393253 38.1420746 -9.38671902 35.36036027 -9.25 30.9375 C-9.22164063 29.99519531 -9.19328125 29.05289063 -9.1640625 28.08203125 C-9.10992187 27.06496094 -9.05578125 26.04789063 -9 25 C-8.94585937 23.86949219 -8.89171875 22.73898438 -8.8359375 21.57421875 C-8.51145031 16.26825221 -8.15963157 11.89626393 -6 7 C-5.67 5.9275 -5.34 4.855 -5 3.75 C-3.84061597 0.56169392 -3.36263025 0 0 0 Z " fill="#E6BE2D" transform="translate(76,119)"/>
<path d="M0 0 C0.99 0.33 1.98 0.66 3 1 C3.07528812 5.31922178 3.12912646 9.63807568 3.16479492 13.95776367 C3.17969533 15.42104766 3.20002282 16.88428853 3.22631836 18.34741211 C3.49423206 33.66051891 2.09508703 47.86201892 -9 59.375 C-11.79065023 62.01295427 -14.45005775 64.43384901 -18 66 C-18.66 65.67 -19.32 65.34 -20 65 C-18.68 64.34 -17.36 63.68 -16 63 C-16.2475 62.4225 -16.495 61.845 -16.75 61.25 C-17 59 -17 59 -15.3125 56.75 C-13 55 -13 55 -9 55 C-8.896875 54.071875 -8.79375 53.14375 -8.6875 52.1875 C-8 49 -8 49 -6.59375 47.73828125 C-1.81655965 42.52786531 -0.73734513 31.77045923 -0.8125 24.875 C-0.86019531 24.04742187 -0.90789062 23.21984375 -0.95703125 22.3671875 C-1.00429056 19.76362907 -0.56979888 17.53560502 0 15 C0.34403308 12.66822025 0.67949202 10.33512959 1 8 C-2.72426467 9.9601393 -4.19777111 11.27539364 -6 15 C-8.29504633 16.4066413 -10.43428919 17.14476306 -13 18 C-13.71108299 19.31018441 -14.37253017 20.64777819 -15 22 C-16.00435972 23.28016835 -17.04690261 24.53128122 -18.125 25.75 C-18.93324219 26.67039063 -18.93324219 26.67039063 -19.7578125 27.609375 C-20.16773438 28.06828125 -20.57765625 28.5271875 -21 29 C-21.66 28.67 -22.32 28.34 -23 28 C-22.53851563 27.50113281 -22.07703125 27.00226563 -21.6015625 26.48828125 C-16.99063359 21.41261444 -12.72024255 16.16180282 -8.59033203 10.69458008 C-5.82468359 7.03735163 -2.95650616 3.50264584 0 0 Z " fill="#EDA529" transform="translate(157,170)"/>
<path d="M0 0 C0 0.66 0 1.32 0 2 C0.99 1.67 1.98 1.34 3 1 C3 1.66 3 2.32 3 3 C1.35 3.33 -0.3 3.66 -2 4 C-2.33 4.99 -2.66 5.98 -3 7 C-4.31836099 7.69580638 -5.65359841 8.36013675 -7 9 C-8.51375035 10.41698847 -8.51375035 10.41698847 -9.83984375 12.08203125 C-10.34580078 12.68466797 -10.85175781 13.28730469 -11.37304688 13.90820312 C-11.88931641 14.53662109 -12.40558594 15.16503906 -12.9375 15.8125 C-22.70267341 27.5675578 -22.70267341 27.5675578 -27 29 C-28.16686291 30.68875202 -28.16686291 30.68875202 -29.0625 32.75 C-29.39894531 33.47058594 -29.73539063 34.19117188 -30.08203125 34.93359375 C-30.38496094 35.61550781 -30.68789062 36.29742187 -31 37 C-31.4125 37.928125 -31.825 38.85625 -32.25 39.8125 C-33.16216216 42.08755631 -33.16216216 42.08755631 -33 45 C-33.66 45 -34.32 45 -35 45 C-34.73343428 47.93443402 -34.73343428 47.93443402 -34 51 C-33.01 51.66 -32.02 52.32 -31 53 C-30.8125 55.625 -30.8125 55.625 -31 58 C-35.59306496 56.5140084 -38.43569245 54.14985318 -42 51 C-41.47642597 46.28783377 -39.31968063 42.99936379 -36.6875 39.1875 C-36.24672119 38.53950439 -35.80594238 37.89150879 -35.35180664 37.22387695 C-9.78465749 0 -9.78465749 0 0 0 Z " fill="#EBBC3E" transform="translate(140,81)"/>
<path d="M0 0 C0.33 0 0.66 0 1 0 C1.42331262 7.61962709 -0.43756989 13.77224793 -3.0625 20.875 C-5.21006392 28.03354639 -6.30961672 35.39545528 -5.97265625 42.8671875 C-6 45 -6 45 -6.48046875 47.81640625 C-7.04394318 51.26927589 -7.20433068 54.56499143 -7.25 58.0625 C-7.27578125 59.24972656 -7.3015625 60.43695313 -7.328125 61.66015625 C-6.97575181 65.24681194 -6.08095646 67.10308956 -4 70 C-6.45871405 69.06738433 -7.88547965 68.13194736 -9.6171875 66.13671875 C-11.7361344 61.330181 -11.40038337 56.69227659 -11.3125 51.5 C-11.30049561 50.4164624 -11.28849121 49.3329248 -11.27612305 48.21655273 C-10.97953529 31.40696843 -7.43543194 15.14625024 0 0 Z " fill="#F1C322" transform="translate(58,108)"/>
<path d="M0 0 C0.598125 0.20625 1.19625 0.4125 1.8125 0.625 C-0.1675 1.615 -0.1675 1.615 -2.1875 2.625 C-0.17538074 14.41468005 -0.17538074 14.41468005 3.25 25.8515625 C3.97927382 28.15080079 4.04390094 30.2338569 3.8125 32.625 C4.8025 32.625 5.7925 32.625 6.8125 32.625 C7.245625 33.594375 7.67875 34.56375 8.125 35.5625 C9.5139861 38.90231765 9.5139861 38.90231765 12.8125 39.625 C12.4825 40.615 12.1525 41.605 11.8125 42.625 C12.39257812 42.91375 12.97265625 43.2025 13.5703125 43.5 C14.96521129 44.19987953 16.3565591 44.90694156 17.7421875 45.625 C18.38414063 45.955 19.02609375 46.285 19.6875 46.625 C20.32429688 46.955 20.96109375 47.285 21.6171875 47.625 C27.83114747 50.45555828 32.95873408 50.88173789 39.6875 50.75 C41.00621094 50.73646484 41.00621094 50.73646484 42.3515625 50.72265625 C44.5053271 50.69924577 46.65895014 50.6633801 48.8125 50.625 C45.45080027 53.98669973 41.79404969 53.80207309 37.1875 53.875 C25.95118158 53.71156264 18.24966049 50.03829616 9.8125 42.625 C-0.38561229 31.94675059 -5.44347908 18.25915504 -5.5859375 3.5859375 C-4.93451536 0.37991872 -3.12322215 -0.53540951 0 0 Z " fill="#EFBE23" transform="translate(88.1875,185.375)"/>
<path d="M0 0 C3.57318292 1.29136084 6.37557245 2.79692447 9.375 5.125 C10.08398438 5.66382812 10.79296875 6.20265625 11.5234375 6.7578125 C18.34999197 12.93832081 23.36752012 20.22077464 28.3125 27.9375 C28.96114014 28.94296875 29.60978027 29.9484375 30.27807617 30.984375 C34.2048016 37.10611904 38.07675624 43.25966591 41.8125 49.5 C42.4154187 50.49374634 42.4154187 50.49374634 43.03051758 51.50756836 C45.42716307 55.59231786 46.87842304 59.39500675 48 64 C44.30323207 60.71398406 42.24340024 57.79666003 40.1796875 53.328125 C38.22400017 49.46855663 35.77896863 45.92289806 33.390625 42.3203125 C32 40 32 40 32 38 C30.35 37.67 28.7 37.34 27 37 C27 35.35 27 33.7 27 32 C26.01 31.67 25.02 31.34 24 31 C22.9375 28.8125 22.9375 28.8125 22 26 C21.62875 24.906875 21.2575 23.81375 20.875 22.6875 C20.58625 21.800625 20.2975 20.91375 20 20 C19.34 20 18.68 20 18 20 C17.525625 19.195625 17.05125 18.39125 16.5625 17.5625 C15.20016328 14.7081924 15.20016328 14.7081924 12 14 C11.67 12.35 11.34 10.7 11 9 C9.68 8.67 8.36 8.34 7 8 C7 7.34 7 6.68 7 6 C6.030625 5.7525 5.06125 5.505 4.0625 5.25 C3.051875 4.8375 2.04125 4.425 1 4 C0.125 1.875 0.125 1.875 0 0 Z " fill="#D59444" transform="translate(197,81)"/>
<path d="M0 0 C-2.68841859 2.25245881 -4.64641875 3.88213958 -8 5 C-8.70182826 6.31516513 -9.35979793 7.65375948 -10 9 C-11.51379887 11.05122561 -13.04653352 13.06265443 -14.625 15.0625 C-17.94725023 19.31440115 -21.18093843 23.60388404 -24.3125 28 C-29.86701426 35.62909187 -29.86701426 35.62909187 -33 38 C-37.1661908 37.67898697 -39.68956713 36.07678934 -43 33.625 C-45.56521478 31.74117039 -48.07170316 29.95757563 -50.8125 28.3359375 C-51.534375 27.89507812 -52.25625 27.45421875 -53 27 C-53 26.67 -53 26.34 -53 26 C-50.69 26.33 -48.38 26.66 -46 27 C-46 27.66 -46 28.32 -46 29 C-43.50935112 29.68707555 -41.62113708 30 -39 30 C-38.34 30 -37.68 30 -37 30 C-37 30.66 -37 31.32 -37 32 C-36.401875 31.649375 -35.80375 31.29875 -35.1875 30.9375 C-33 30 -33 30 -30 31 C-29.9071875 30.071875 -29.9071875 30.071875 -29.8125 29.125 C-29.544375 28.42375 -29.27625 27.7225 -29 27 C-28.175 26.690625 -27.35 26.38125 -26.5 26.0625 C-25.675 25.711875 -24.85 25.36125 -24 25 C-23.10613836 22.45224694 -23.10613836 22.45224694 -23 20 C-22.01 20 -21.02 20 -20 20 C-19.71125 18.9275 -19.4225 17.855 -19.125 16.75 C-17.41176471 11.03921569 -17.41176471 11.03921569 -16 9 C-15.34 8.855625 -14.68 8.71125 -14 8.5625 C-13.34 8.376875 -12.68 8.19125 -12 8 C-11.690625 7.21625 -11.38125 6.4325 -11.0625 5.625 C-9.02866087 0.60022097 -5.11239698 -0.43820546 0 0 Z " fill="#E3AA34" transform="translate(163,114)"/>
<path d="M0 0 C2.475 0.495 2.475 0.495 5 1 C4.67 1.99 4.34 2.98 4 4 C3.34 4 2.68 4 2 4 C2.14009787 8.0002222 2.28811744 12.00011461 2.4375 16 C2.47681641 17.12535156 2.51613281 18.25070313 2.55664062 19.41015625 C2.15014942 29.27157302 2.15014942 29.27157302 5 38 C5.45459858 40.65463121 5.70243238 43.32189138 6 46 C6.99 46.33 7.98 46.66 9 47 C9.28875 47.9075 9.5775 48.815 9.875 49.75 C11.21033378 53.60763093 12.91988493 55.37063348 16 58 C17.485 58.495 17.485 58.495 19 59 C19.33 59.99 19.66 60.98 20 62 C22.38564077 61.42415568 24.66682784 60.77772405 27 60 C27.66 60.33 28.32 60.66 29 61 C29 61.66 29 62.32 29 63 C28.01 63 27.02 63 26 63 C26 63.66 26 64.32 26 65 C27.65 65 29.3 65 31 65 C30.67 65.66 30.34 66.32 30 67 C21.41307923 66.63459912 15.57594729 61.90940868 9.75 55.875 C2.19147853 46.9586603 -0.18309754 36.63210803 -0.09765625 25.1953125 C-0.0962413 24.4713327 -0.09482635 23.74735291 -0.09336853 23.00143433 C-0.08781075 20.70924593 -0.07526633 18.41715843 -0.0625 16.125 C-0.05747953 14.56250142 -0.05291759 13.00000129 -0.04882812 11.4375 C-0.03785519 7.62496165 -0.0206201 3.81249788 0 0 Z " fill="#E0A43F" transform="translate(177,171)"/>
<path d="M0 0 C1.68879677 0.01005043 3.37759934 0.01917263 5.06640625 0.02734375 C9.16941594 0.04919261 13.27214282 0.08360846 17.375 0.125 C17.375 0.785 17.375 1.445 17.375 2.125 C21.83 1.63 21.83 1.63 26.375 1.125 C26.375 1.785 26.375 2.445 26.375 3.125 C27.23351562 3.40085938 28.09203125 3.67671875 28.9765625 3.9609375 C32.30078037 5.09957764 35.51354627 6.38349731 38.75 7.75 C39.80960937 8.19601563 40.86921875 8.64203125 41.9609375 9.1015625 C42.75757813 9.43929687 43.55421875 9.77703125 44.375 10.125 C44.375 10.785 44.375 11.445 44.375 12.125 C41.05506108 11.04263747 37.7630055 9.90903399 34.4921875 8.6875 C10.81296984 -0.09865549 -12.89931164 -0.52274146 -36.2578125 9.55859375 C-39.97138869 11.28613905 -43.51254348 13.17495565 -46.98828125 15.33984375 C-47.52839844 15.59894531 -48.06851563 15.85804687 -48.625 16.125 C-49.285 15.795 -49.945 15.465 -50.625 15.125 C-46.875 12.125 -46.875 12.125 -44.625 12.125 C-43.965 10.145 -43.305 8.165 -42.625 6.125 C-41.696875 5.980625 -40.76875 5.83625 -39.8125 5.6875 C-36.83763023 5.16252298 -34.30865308 4.4357514 -31.5625 3.1875 C-21.24214314 -0.54539504 -10.8113814 -0.11237561 0 0 Z " fill="#E3B051" transform="translate(166.625,52.875)"/>
<path d="M0 0 C-1.00160156 0.7734375 -2.00320312 1.546875 -3.03515625 2.34375 C-13.33455915 10.3323153 -13.33455915 10.3323153 -22 20 C-23.18142578 21.52173828 -23.18142578 21.52173828 -24.38671875 23.07421875 C-30.55064771 31.2107443 -35.02985551 39.6136319 -39 49 C-40.18771723 45.57056481 -39.80226223 43.62215325 -38.5625 40.25 C-38.27503906 39.45078125 -37.98757812 38.6515625 -37.69140625 37.828125 C-37.46324219 37.22484375 -37.23507813 36.6215625 -37 36 C-36.34 36 -35.68 36 -35 36 C-35.020625 34.72125 -35.04125 33.4425 -35.0625 32.125 C-35.125 28.25 -35.125 28.25 -34 26 C-33.01 25.67 -32.02 25.34 -31 25 C-29.43579853 23.28561252 -27.94387998 21.5043823 -26.5 19.6875 C-25.7265625 18.72199219 -24.953125 17.75648437 -24.15625 16.76171875 C-22.84722346 15.08512135 -21.56723525 13.38453504 -20.34375 11.64453125 C-19.9003125 11.10183594 -19.456875 10.55914062 -19 10 C-18.34 10 -17.68 10 -17 10 C-16.67 8.68 -16.34 7.36 -16 6 C-12.535 5.505 -12.535 5.505 -9 5 C-8.95875 4.38125 -8.9175 3.7625 -8.875 3.125 C-8 1 -8 1 -5.0625 -0.3125 C-2 -1 -2 -1 0 0 Z " fill="#E8BD27" transform="translate(116,70)"/>
<path d="M0 0 C1.0536628 3.16098841 1.21514551 4.00887259 0 7 C-1.30582947 8.03565785 -2.64377755 9.03126968 -4 10 C-7.30270067 13.74306075 -9.89887192 17.88572584 -12.53515625 22.109375 C-14 24 -14 24 -17 25 C-17 25.66 -17 26.32 -17 27 C-17.66 27 -18.32 27 -19 27 C-19.1546875 27.86625 -19.1546875 27.86625 -19.3125 28.75 C-20 31 -20 31 -21.5 32.875 C-23.37838523 35.53604574 -23.63634558 37.79984114 -24 41 C-25.32 41 -26.64 41 -28 41 C-23.25322929 25.31912561 -11.84512556 11.05545052 0 0 Z " fill="#ECC435" transform="translate(87,67)"/>
<path d="M0 0 C3.42266827 1.14088942 3.98367437 2.15881389 6 5 C6.33 5 6.66 5 7 5 C7.66 7.64 8.32 10.28 9 13 C10.32 13.33 11.64 13.66 13 14 C14.265625 16.21484375 14.265625 16.21484375 15.25 18.9375 C15.58515625 19.83339844 15.9203125 20.72929687 16.265625 21.65234375 C17 24 17 24 17 26 C17.66 26 18.32 26 19 26 C23.52270791 35.34827573 23.4271618 43.87863851 23 54 C21.02253397 54.73080266 19.01927511 55.39421747 17 56 C16.34 55.67 15.68 55.34 15 55 C15.804375 54.360625 16.60875 53.72125 17.4375 53.0625 C20.81405044 49.02711045 21.38187134 46.19182529 21 41 C18.12057514 27.54135492 8.67432142 14.88220654 1.43359375 3.37890625 C0 1 0 1 0 0 Z " fill="#E09E4F" transform="translate(200,144)"/>
<path d="M0 0 C0.99 0.33 1.98 0.66 3 1 C3 11.23 3 21.46 3 32 C2.67 32 2.34 32 2 32 C1.505 20.12 1.505 20.12 1 8 C-3.91476504 10.82612165 -3.91476504 10.82612165 -6 15 C-8.29504633 16.4066413 -10.43428919 17.14476306 -13 18 C-13.71108299 19.31018441 -14.37253017 20.64777819 -15 22 C-16.00435972 23.28016835 -17.04690261 24.53128122 -18.125 25.75 C-18.93324219 26.67039063 -18.93324219 26.67039063 -19.7578125 27.609375 C-20.16773438 28.06828125 -20.57765625 28.5271875 -21 29 C-21.66 28.67 -22.32 28.34 -23 28 C-22.53851563 27.50113281 -22.07703125 27.00226563 -21.6015625 26.48828125 C-16.99063359 21.41261444 -12.72024255 16.16180282 -8.59033203 10.69458008 C-5.82468359 7.03735163 -2.95650616 3.50264584 0 0 Z " fill="#E3A937" transform="translate(157,170)"/>
<path d="M0 0 C4.47197586 0.88176384 7.33564152 3.37593561 10.75 6.25 C11.35199219 6.72824219 11.95398438 7.20648438 12.57421875 7.69921875 C15.20112073 9.89723878 16.85867992 11.2882793 17.5390625 14.71484375 C16.74049479 18.10007645 14.84908191 19.16844735 12 21 C11.34 21 10.68 21 10 21 C10.33 19.02 10.66 17.04 11 15 C11.66 15 12.32 15 13 15 C13.33 14.34 13.66 13.68 14 13 C11.60931266 11.89363605 11.60931266 11.89363605 9 11 C8.01 11.495 8.01 11.495 7 12 C6.566875 10.865625 6.13375 9.73125 5.6875 8.5625 C5.130625 7.386875 4.57375 6.21125 4 5 C3.01 4.67 2.02 4.34 1 4 C0.67 4.99 0.34 5.98 0 7 C-2.94140625 8.16796875 -2.94140625 8.16796875 -6.5625 9.1875 C-7.76003906 9.53167969 -8.95757812 9.87585938 -10.19140625 10.23046875 C-11.11824219 10.48441406 -12.04507813 10.73835937 -13 11 C-13 10.34 -13 9.68 -13 9 C-12.39671875 8.76925781 -11.7934375 8.53851563 -11.171875 8.30078125 C-6.21230418 6.27695638 -2.98217526 4.66775259 0 0 Z " fill="#E2B541" transform="translate(103,147)"/>
<path d="M0 0 C0.5259375 0.44988281 1.051875 0.89976563 1.59375 1.36328125 C-1.60030155 0.88417352 -4.5746643 0.31010843 -7.66015625 -0.6640625 C-13.59731113 -2.1657893 -19.69087424 -1.89836134 -25.7722168 -1.8425293 C-27.86324004 -1.82404648 -29.95382472 -1.82202159 -32.04492188 -1.82226562 C-38.11136106 -2.39437693 -38.11136106 -2.39437693 -43.40625 -0.63671875 C-45.73586443 -0.27831653 -48.06990343 0.05176837 -50.40625 0.36328125 C-52.07559283 0.68294264 -53.7435717 1.01059191 -55.40625 1.36328125 C-42.59569704 -9.38403361 -13.72486547 -9.33558219 0 0 Z " fill="#DEA74A" transform="translate(195.40625,79.63671875)"/>
<path d="M0 0 C0.02578125 0.71285156 0.0515625 1.42570313 0.078125 2.16015625 C0.4547951 8.52074446 1.08510384 12.88888557 5 18 C9.35022153 20.98300905 14.0588365 19.79661459 19 19 C17.625 21.0625 17.625 21.0625 15 23 C10.90576902 23.13207197 6.69535777 22.84767889 3 21 C3 20.34 3 19.68 3 19 C2.34 19 1.68 19 1 19 C-1.4793824 12.75726932 -2.31985731 7.71700347 -2 1 C-2.98226562 1.30744141 -2.98226562 1.30744141 -3.984375 1.62109375 C-10.99972911 3.69201043 -17.70286355 4.63068594 -25 5 C-21.25105893 2.84801045 -17.21912266 1.86207564 -13.0625 0.8125 C-12.35931641 0.62236328 -11.65613281 0.43222656 -10.93164062 0.23632812 C-6.95524899 -0.77360827 -3.95418786 -1.21488746 0 0 Z " fill="#E2B241" transform="translate(115,180)"/>
<path d="M0 0 C-2.93425371 1.17495143 -5.87289513 2.33850852 -8.8125 3.5 C-9.64587891 3.83386719 -10.47925781 4.16773438 -11.33789062 4.51171875 C-12.54155273 4.98544922 -12.54155273 4.98544922 -13.76953125 5.46875 C-14.50792236 5.76201172 -15.24631348 6.05527344 -16.00708008 6.35742188 C-18 7 -18 7 -21 7 C-21 7.66 -21 8.32 -21 9 C-21.61488281 9.26554687 -22.22976562 9.53109375 -22.86328125 9.8046875 C-23.67152344 10.15789063 -24.47976562 10.51109375 -25.3125 10.875 C-26.51326172 11.39707031 -26.51326172 11.39707031 -27.73828125 11.9296875 C-30.1961834 13.02571894 -30.1961834 13.02571894 -33 15 C-35.33199388 15.07905064 -37.66832622 15.08798769 -40 15 C-33.69006163 7.47481424 -20.88127343 3.65842499 -11.75 0.9375 C-10.67854736 0.61386475 -10.67854736 0.61386475 -9.58544922 0.28369141 C-5.97133927 -0.72479676 -3.57231583 -1.09415659 0 0 Z " fill="#E5BD48" transform="translate(146,38)"/>
<path d="M0 0 C7.25 0 7.25 0 11 1 C10.67 1.66 10.34 2.32 10 3 C10.66 3.33 11.32 3.66 12 4 C12 4.66 12 5.32 12 6 C13.32 6.33 14.64 6.66 16 7 C16 7.66 16 8.32 16 9 C18.64 9.33 21.28 9.66 24 10 C24.33 9.34 24.66 8.68 25 8 C26.32 9.32 27.64 10.64 29 12 C28.01 12.33 27.02 12.66 26 13 C26 13.66 26 14.32 26 15 C21.27715733 15.73794417 18.44520175 13.76941254 14.57421875 11.38671875 C14.05472656 10.92910156 13.53523437 10.47148438 13 10 C13 9.01 13 8.02 13 7 C12.360625 6.9175 11.72125 6.835 11.0625 6.75 C6.79458483 5.70479628 2.96892333 3.85908174 -1 2 C-0.67 1.34 -0.34 0.68 0 0 Z " fill="#EC982B" transform="translate(198,56)"/>
<path d="M0 0 C0.33 0 0.66 0 1 0 C1.09348072 5.36994814 1.0954524 10.65770167 0.5 16 C-0.00815211 21.24837705 -0.21551225 26.48033204 -0.3125 31.75 C-0.34214844 32.554375 -0.37179688 33.35875 -0.40234375 34.1875 C-0.45967346 39.95869109 0.75954123 43.21920481 4 48 C1.54128595 47.06738433 0.11452035 46.13194736 -1.6171875 44.13671875 C-3.7364047 39.32956786 -3.39888715 34.69278323 -3.3125 29.5 C-3.303396 28.42588867 -3.29429199 27.35177734 -3.28491211 26.24511719 C-3.14410914 17.2473311 -2.2635902 8.72807753 0 0 Z " fill="#E7C554" transform="translate(50,130)"/>
<path d="M0 0 C4.424757 0.67942526 8.3582125 2.22246923 12.4375 4 C13.13037109 4.30107666 13.82324219 4.60215332 14.53710938 4.91235352 C21.8432341 8.20227023 28.41670985 12.46370163 35 17 C34.01 17.495 34.01 17.495 33 18 C31.01171875 17.22265625 31.01171875 17.22265625 28.6875 16.0625 C25.10482901 14.35312856 25.10482901 14.35312856 21.1875 14.0625 C20.465625 14.041875 19.74375 14.02125 19 14 C16.9375 11.625 16.9375 11.625 15 9 C12.88339573 7.68834743 12.88339573 7.68834743 11 7 C11 6.34 11 5.68 11 5 C10.37351563 4.89042969 9.74703125 4.78085937 9.1015625 4.66796875 C7.87566406 4.43013672 7.87566406 4.43013672 6.625 4.1875 C5.81289062 4.03667969 5.00078125 3.88585938 4.1640625 3.73046875 C2 3 2 3 0 0 Z " fill="#DF9A46" transform="translate(199,41)"/>
<path d="M0 0 C3.98719058 1.96803638 6.4175721 4.43579103 8.43359375 8.390625 C9.55211056 11.773291 9.326087 14.80638529 9.078125 18.33984375 C8.748125 18.33984375 8.418125 18.33984375 8.078125 18.33984375 C7.81 17.14359375 7.541875 15.94734375 7.265625 14.71484375 C5.95735436 9.51861388 4.6707775 5.40161208 0.078125 2.33984375 C-2.75591143 1.94641857 -2.75591143 1.94641857 -5.859375 1.96484375 C-6.89964844 1.93648438 -7.93992187 1.908125 -9.01171875 1.87890625 C-13.50615578 2.59077681 -15.08196125 5.1999608 -17.671875 8.71484375 C-19.21319241 11.95161032 -19.42925678 13.78817131 -18.921875 17.33984375 C-16.99893982 20.55813479 -16.99893982 20.55813479 -14.921875 23.33984375 C-14.921875 23.99984375 -14.921875 24.65984375 -14.921875 25.33984375 C-17.921875 24.33984375 -17.921875 24.33984375 -19.609375 21.77734375 C-21.38666029 17.12254894 -21.87087065 13.12469407 -20.265625 8.4140625 C-16.32639815 0.48467052 -8.4320539 -2.89637624 0 0 Z " fill="#D99666" transform="translate(279.921875,121.66015625)"/>
<path d="M0 0 C0 0.66 0 1.32 0 2 C-0.93199219 2.27972656 -1.86398438 2.55945312 -2.82421875 2.84765625 C-10.97575759 5.38311709 -18.10179257 8.39933192 -25.48828125 12.7421875 C-26.31714844 13.15726563 -27.14601563 13.57234375 -28 14 C-28.66 13.67 -29.32 13.34 -30 13 C-26.25 10 -26.25 10 -24 10 C-23.34 8.02 -22.68 6.04 -22 4 C-21.071875 3.855625 -20.14375 3.71125 -19.1875 3.5625 C-16.13105484 3.02312732 -13.60107635 2.29195137 -10.8125 0.9375 C-7.05852814 -0.31382395 -3.94822234 -0.13383805 0 0 Z " fill="#E8B63A" transform="translate(146,55)"/>
<path d="M0 0 C0 0.66 0 1.32 0 2 C0.99 1.67 1.98 1.34 3 1 C3 1.66 3 2.32 3 3 C1.35 3.33 -0.3 3.66 -2 4 C-2.33 4.99 -2.66 5.98 -3 7 C-3.59296875 7.28617187 -4.1859375 7.57234375 -4.796875 7.8671875 C-7.7740812 9.39802048 -9.21903535 11.48474595 -11.25 14.125 C-11.95640625 15.03507812 -12.6628125 15.94515625 -13.390625 16.8828125 C-13.92171875 17.58148438 -14.4528125 18.28015625 -15 19 C-16.17983492 15.46049523 -15.6404347 13.55915573 -14.29296875 10.13671875 C-11.66158217 5.78817356 -5.36072453 0 0 0 Z " fill="#EEAF26" transform="translate(140,81)"/>
<path d="M0 0 C2.475 0.495 2.475 0.495 5 1 C4.67 1.99 4.34 2.98 4 4 C3.34 4 2.68 4 2 4 C2 15.55 2 27.1 2 39 C1.67 39 1.34 39 1 39 C0.08954273 34.36895437 -0.13279048 29.89822573 -0.09765625 25.1953125 C-0.0962413 24.4713327 -0.09482635 23.74735291 -0.09336853 23.00143433 C-0.08781075 20.70924593 -0.07526633 18.41715843 -0.0625 16.125 C-0.05747953 14.56250142 -0.05291759 13.00000129 -0.04882812 11.4375 C-0.03785519 7.62496165 -0.0206201 3.81249788 0 0 Z " fill="#DCA957" transform="translate(177,171)"/>
<path d="M0 0 C0.66 0 1.32 0 2 0 C2.03738281 0.60328125 2.07476562 1.2065625 2.11328125 1.828125 C2.49705337 6.49359002 2.80844119 9.39215091 6 13 C6 13.99 6 14.98 6 16 C6.66 16 7.32 16 8 16 C8.66 16.99 9.32 17.98 10 19 C13.89784125 20.21158476 17.75772771 20.1034573 21.8125 20.0625 C23.55466797 20.04896484 23.55466797 20.04896484 25.33203125 20.03515625 C26.21246094 20.02355469 27.09289062 20.01195313 28 20 C25.15805114 22.84194886 23.24293131 22.98380458 19.25 23.25 C13.62948262 23.15718412 9.54878184 21.30238473 5.25 17.6875 C0.36312447 11.85039867 -0.44262519 7.37708642 0 0 Z " fill="#D8944F" transform="translate(235,87)"/>
<path d="M0 0 C5.15119252 2.77114044 8.66579386 6.9159561 10.86328125 12.28125 C11.05859375 15.078125 11.05859375 15.078125 10.98828125 18.03125 C10.97023438 19.01609375 10.9521875 20.0009375 10.93359375 21.015625 C10.91039062 21.76328125 10.8871875 22.5109375 10.86328125 23.28125 C10.53328125 23.28125 10.20328125 23.28125 9.86328125 23.28125 C9.84910156 22.6521875 9.83492188 22.023125 9.8203125 21.375 C9.46202401 14.94517411 8.33389634 10.08384146 3.86328125 5.28125 C-0.25436977 2.16661653 -4.80537124 0.48147994 -10.046875 0.76171875 C-14.31616552 1.82305639 -17.98127352 4.26328268 -21.13671875 7.28125 C-22.41058824 9.87924059 -22.41058824 9.87924059 -23.13671875 12.28125 C-23.79671875 12.28125 -24.45671875 12.28125 -25.13671875 12.28125 C-23.88456774 6.43787862 -20.91772771 3.55022494 -16.13671875 0.28125 C-11.04065361 -1.41743838 -5.14382507 -1.73028119 0 0 Z " fill="#D79C69" transform="translate(261.13671875,73.71875)"/>
<path d="M0 0 C-9.54169973 6.67918981 -19.87690109 6.37261001 -31 6 C-31.33 4.68 -31.66 3.36 -32 2 C-30.81921875 2.01160156 -29.6384375 2.02320313 -28.421875 2.03515625 C-26.86458492 2.04453752 -25.30729312 2.05363736 -23.75 2.0625 C-22.97269531 2.07087891 -22.19539063 2.07925781 -21.39453125 2.08789062 C-20.64042969 2.09111328 -19.88632813 2.09433594 -19.109375 2.09765625 C-18.41811523 2.10289307 -17.72685547 2.10812988 -17.01464844 2.11352539 C-14.94835229 2.06310357 -14.94835229 2.06310357 -12.80566406 1.43139648 C-12.20979492 1.28903564 -11.61392578 1.1466748 -11 1 C-10.67 1.33 -10.34 1.66 -10 2 C-9.44570312 1.77183594 -8.89140625 1.54367188 -8.3203125 1.30859375 C-7.59585938 1.02113281 -6.87140625 0.73367187 -6.125 0.4375 C-5.40570313 0.14746094 -4.68640625 -0.14257812 -3.9453125 -0.44140625 C-2 -1 -2 -1 0 0 Z " fill="#E8BB36" transform="translate(101,155)"/>
<path d="M0 0 C2.72701737 2.61339165 3.28530943 4.78492642 3.4375 8.4375 C3.31169226 11.62987135 3.00298953 12.99449926 1.4375 15.875 C-2.16130223 19.01241733 -5.46975083 20.93263896 -10.34765625 21.0625 C-16.32298475 20.5961329 -16.32298475 20.5961329 -18.765625 18.4453125 C-19.17296875 17.96835938 -19.5803125 17.49140625 -20 17 C-19.360625 17.165 -18.72125 17.33 -18.0625 17.5 C-12.5391933 18.40176436 -7.43079244 18.35769811 -2 17 C-1.67 14.03 -1.34 11.06 -1 8 C-0.34 8 0.32 8 1 8 C0.67 5.36 0.34 2.72 0 0 Z " fill="#D7833E" transform="translate(285,130)"/>
<path d="M0 0 C0.66 0.33 1.32 0.66 2 1 C1.443125 1.680625 0.88625 2.36125 0.3125 3.0625 C-4.85117918 9.62176815 -8.87354255 16.18599829 -12.43554688 23.7421875 C-14.83800338 28.83800338 -14.83800338 28.83800338 -17 31 C-16.45144652 26.428721 -15.58255197 22.32564205 -14 18 C-13.34 18 -12.68 18 -12 18 C-11.855625 17.4225 -11.71125 16.845 -11.5625 16.25 C-10.78125 13.125 -10.78125 13.125 -10 10 C-9.071875 9.87625 -9.071875 9.87625 -8.125 9.75 C-5.8695627 9.21428985 -5.8695627 9.21428985 -5 7.25 C-4.505 6.13625 -4.505 6.13625 -4 5 C-2.6949419 3.31110128 -1.36639342 1.6396721 0 0 Z " fill="#E2C446" transform="translate(93,88)"/>
<path d="M0 0 C-3.72626615 2.15273925 -7.73042832 3.06247949 -11.875 4.0625 C-12.56980469 4.23587891 -13.26460937 4.40925781 -13.98046875 4.58789062 C-20.96483418 6.30438721 -27.55937401 7.18133308 -34.75 7.1875 C-35.51699219 7.19974609 -36.28398438 7.21199219 -37.07421875 7.22460938 C-39.05089071 7.22982029 -41.02713827 7.12278359 -43 7 C-43.66 6.34 -44.32 5.68 -45 5 C-43.81921875 5.01160156 -42.6384375 5.02320313 -41.421875 5.03515625 C-39.86458492 5.04453752 -38.30729312 5.05363736 -36.75 5.0625 C-35.97269531 5.07087891 -35.19539063 5.07925781 -34.39453125 5.08789062 C-33.64042969 5.09111328 -32.88632813 5.09433594 -32.109375 5.09765625 C-31.41811523 5.10289307 -30.72685547 5.10812988 -30.01464844 5.11352539 C-27.89715204 4.99420452 -26.04475686 4.5447011 -24 4 C-22.58465222 3.93543121 -21.16662311 3.91388961 -19.75 3.9375 C-17.89375 3.9684375 -17.89375 3.9684375 -16 4 C-16 3.34 -16 2.68 -16 2 C-10.61972975 0.80911014 -5.54708616 -0.2919519 0 0 Z " fill="#E2B841" transform="translate(99,173)"/>
<path d="M0 0 C0.33 0 0.66 0 1 0 C1.34627925 6.23302655 0.93222107 12.36573222 -2 18 C-4.61328125 19.79296875 -4.61328125 19.79296875 -7 21 C-5.34886481 13.60741743 -3.37964731 6.79360575 0 0 Z " fill="#EBC841" transform="translate(58,108)"/>
<path d="M0 0 C4.66930119 6.09039285 4.9888399 11.3614386 4 19 C2.46366697 21.92139635 0.69396554 24.08072403 -2 26 C-2.66 26 -3.32 26 -4 26 C-3.02141808 22.83842764 -2.03570071 20.0617897 -0.375 17.1875 C2.01255842 11.65270548 1.49236033 5.7828963 0 0 Z " fill="#DA8339" transform="translate(267,81)"/>
<path d="M0 0 C0.33 0 0.66 0 1 0 C1.33 6.93 1.66 13.86 2 21 C1.01 21 0.02 21 -1 21 C-1.06058594 21.75925781 -1.12117187 22.51851562 -1.18359375 23.30078125 C-1.26738281 24.29464844 -1.35117188 25.28851563 -1.4375 26.3125 C-1.51871094 27.29863281 -1.59992188 28.28476563 -1.68359375 29.30078125 C-2 32 -2 32 -3 35 C-3.66 35 -4.32 35 -5 35 C-4.51048774 31.16548733 -3.88940149 27.49684628 -2.9375 23.75 C-1.90361123 19.31035999 -1.87462827 15.11975067 -2.02734375 10.578125 C-1.9872936 6.80196811 -1.1902638 3.57079141 0 0 Z " fill="#E7A72B" transform="translate(158,182)"/>
<path d="M0 0 C0.33 0 0.66 0 1 0 C1.33 2.64 1.66 5.28 2 8 C2.99 8 3.98 8 5 8 C5.33 10.64 5.66 13.28 6 16 C9.3 16.33 12.6 16.66 16 17 C16 17.33 16 17.66 16 18 C14.08529156 18.13547465 12.16781519 18.23220869 10.25 18.3125 C9.18265625 18.37050781 8.1153125 18.42851562 7.015625 18.48828125 C4 18 4 18 1.625 15.90625 C-0.3454587 12.3821604 -0.41197417 10.19636067 -0.25 6.1875 C-0.21390625 5.02605469 -0.1778125 3.86460937 -0.140625 2.66796875 C-0.07101563 1.34732422 -0.07101563 1.34732422 0 0 Z " fill="#F0C220" transform="translate(50,160)"/>
<path d="M0 0 C3 1 3 1 4.5625 3.5 C5.97191452 6.93161796 6.79741642 10.12322006 7.52734375 13.7421875 C8.18502276 16.88382774 9.08398846 19.92481839 10 23 C8.0703125 22.30859375 8.0703125 22.30859375 6 21 C5.2421875 18.72265625 5.2421875 18.72265625 4.875 16.0625 C4.07923075 10.54895592 1.97538679 7.8428739 -2 4 C-1.34 2.68 -0.68 1.36 0 0 Z " fill="#DC8939" transform="translate(243,144)"/>
<path d="M0 0 C0 2.97 0 5.94 0 9 C-0.33 9 -0.66 9 -1 9 C-1 6.69 -1 4.38 -1 2 C-3.1479894 2.44812018 -5.29336561 2.90878348 -7.4375 3.375 C-8.63246094 3.63023437 -9.82742187 3.88546875 -11.05859375 4.1484375 C-12.02925781 4.42945313 -12.99992187 4.71046875 -14 5 C-14.33 5.66 -14.66 6.32 -15 7 C-18.3 6.67 -21.6 6.34 -25 6 C-22.69367587 3.69367587 -21.67218529 3.53939612 -18.53515625 2.9296875 C-17.65279297 2.75566406 -16.77042969 2.58164063 -15.86132812 2.40234375 C-14.4759082 2.14130859 -14.4759082 2.14130859 -13.0625 1.875 C-11.68288086 1.60236328 -11.68288086 1.60236328 -10.27539062 1.32421875 C-3.45018797 0 -3.45018797 0 0 0 Z " fill="#F1B726" transform="translate(113,181)"/>
<path d="M0 0 C0.53294678 0.21438721 1.06589355 0.42877441 1.61499023 0.6496582 C7.58999821 2.87064645 12.72608813 3.37921456 19.0625 3.1875 C20.3609082 3.16719727 20.3609082 3.16719727 21.68554688 3.14648438 C23.79064174 3.1115933 25.89540974 3.05780665 28 3 C24.63830027 6.36169973 20.98154969 6.17707309 16.375 6.25 C10.48785262 6.22107053 5.49401885 5.0420247 0 3 C0 2.01 0 1.02 0 0 Z " fill="#DEAB40" transform="translate(109,233)"/>
<path d="M0 0 C3.78520613 0.54074373 5.59177555 2.07572746 8 5 C8 5.99 8 6.98 8 8 C8.66 8 9.32 8 10 8 C10.69937202 9.4317616 11.38412718 10.87067032 12.0625 12.3125 C12.44535156 13.11300781 12.82820312 13.91351563 13.22265625 14.73828125 C14 17 14 17 13 20 C11.20410736 17.41958111 9.41404504 14.83517009 7.625 12.25 C7.11710938 11.52039063 6.60921875 10.79078125 6.0859375 10.0390625 C5.59609375 9.33007812 5.10625 8.62109375 4.6015625 7.890625 C4.15119629 7.24125977 3.70083008 6.59189453 3.23681641 5.92285156 C2.00275226 4.00427887 0.98086094 2.05780622 0 0 Z " fill="#E3A54B" transform="translate(186,124)"/>
<path d="M0 0 C0.81640625 3.24609375 0.81640625 3.24609375 1 6 C0.55269531 5.60167969 0.10539062 5.20335938 -0.35546875 4.79296875 C-7.59167547 -1.54835527 -12.31604487 -3.50817041 -22 -4 C-13.80887722 -9.46074852 -6.71402647 -6.50163196 0 0 Z " fill="#E3A64B" transform="translate(185,118)"/>
<path d="M0 0 C0.66 0 1.32 0 2 0 C2 0.66 2 1.32 2 2 C2.99 2 3.98 2 5 2 C5.433125 2.969375 5.86625 3.93875 6.3125 4.9375 C7.7014861 8.27731765 7.7014861 8.27731765 11 9 C10.67 9.99 10.34 10.98 10 12 C10.5775 12.28875 11.155 12.5775 11.75 12.875 C12.4925 13.24625 13.235 13.6175 14 14 C14.721875 14.309375 15.44375 14.61875 16.1875 14.9375 C18 16 18 16 19 19 C10.18363694 16.52039789 4.31850673 8.6228187 0 1 C0 0.67 0 0.34 0 0 Z " fill="#E6BD44" transform="translate(90,216)"/>
<path d="M0 0 C4.6475033 -0.18225503 7.76543542 0.16332139 12 2 C12.88300781 2.35320313 13.76601562 2.70640625 14.67578125 3.0703125 C17.1171875 4.046875 19.55859375 5.0234375 22 6 C18.54785147 8.30143236 17.76520676 8.13833854 13.8125 7.625 C12.91144531 7.51414062 12.01039063 7.40328125 11.08203125 7.2890625 C10.05142578 7.14597656 10.05142578 7.14597656 9 7 C9.33 5.68 9.66 4.36 10 3 C6.7 2.67 3.4 2.34 0 2 C0 1.34 0 0.68 0 0 Z " fill="#E89E2D" transform="translate(188,40)"/>
<path d="M0 0 C2.97 0.495 2.97 0.495 6 1 C5.01 1.495 5.01 1.495 4 2 C3.89171875 2.61488281 3.7834375 3.22976562 3.671875 3.86328125 C2.70259796 6.94580766 1.00599155 7.60158178 -1.75 9.1875 C-3.04164063 9.95126953 -3.04164063 9.95126953 -4.359375 10.73046875 C-6.94511457 11.97361278 -9.17440586 12.57819368 -12 13 C-11.67 12.01 -11.34 11.02 -11 10 C-9.35 10 -7.7 10 -6 10 C-6 9.34 -6 8.68 -6 8 C-4.35 7.67 -2.7 7.34 -1 7 C-0.67 4.69 -0.34 2.38 0 0 Z " fill="#DF8B36" transform="translate(236,224)"/>
<path d="M0 0 C3.53191322 3.43153914 6.7137505 6.97375062 9.8125 10.8125 C10.60269531 11.78832031 11.39289063 12.76414063 12.20703125 13.76953125 C13.09455078 14.87361328 13.09455078 14.87361328 14 16 C13.67 16.66 13.34 17.32 13 18 C11.68 17.34 10.36 16.68 9 16 C9 15.01 9 14.02 9 13 C8.01 13 7.02 13 6 13 C5.7525 12.05125 5.505 11.1025 5.25 10.125 C4.3142923 6.91306809 4.3142923 6.91306809 1.875 5.625 C1.25625 5.41875 0.6375 5.2125 0 5 C0 3.35 0 1.7 0 0 Z " fill="#D89E45" transform="translate(182,174)"/>
<path d="M0 0 C0 2.97 0 5.94 0 9 C-0.33 9 -0.66 9 -1 9 C-1.33 6.69 -1.66 4.38 -2 2 C-2.65484375 2.13277344 -3.3096875 2.26554688 -3.984375 2.40234375 C-10.97606051 3.75525465 -17.89668212 4.52892482 -25 5 C-21.25105893 2.84801045 -17.21912266 1.86207564 -13.0625 0.8125 C-12.35931641 0.62236328 -11.65613281 0.43222656 -10.93164062 0.23632812 C-6.95524899 -0.77360827 -3.95418786 -1.21488746 0 0 Z " fill="#E2BA4C" transform="translate(115,180)"/>
<path d="M0 0 C3.70350652 1.31941502 6.49138044 2.92878651 9.5625 5.375 C10.30628906 5.96023437 11.05007812 6.54546875 11.81640625 7.1484375 C13.99830346 8.99856143 16.00754579 10.94881131 18 13 C17.67 13.66 17.34 14.32 17 15 C16.61328125 14.57847656 16.2265625 14.15695313 15.828125 13.72265625 C15.30734375 13.17480469 14.7865625 12.62695312 14.25 12.0625 C13.73953125 11.51722656 13.2290625 10.97195312 12.703125 10.41015625 C10.80621924 8.83955308 9.40298839 8.41268714 7 8 C7 7.34 7 6.68 7 6 C6.030625 5.7525 5.06125 5.505 4.0625 5.25 C3.051875 4.8375 2.04125 4.425 1 4 C0.125 1.875 0.125 1.875 0 0 Z " fill="#D5A054" transform="translate(197,81)"/>
<path d="M0 0 C0.78375 0.04125 1.5675 0.0825 2.375 0.125 C2.375 0.785 2.375 1.445 2.375 2.125 C3.23351562 2.40085938 4.09203125 2.67671875 4.9765625 2.9609375 C8.30078037 4.09957764 11.51354627 5.38349731 14.75 6.75 C16.33941406 7.41902344 16.33941406 7.41902344 17.9609375 8.1015625 C18.75757813 8.43929687 19.55421875 8.77703125 20.375 9.125 C20.375 9.785 20.375 10.445 20.375 11.125 C15.03010422 9.3900994 9.76830482 7.45181172 4.5 5.5 C3.62085938 5.17515625 2.74171875 4.8503125 1.8359375 4.515625 C-0.31802288 3.71959616 -2.47165788 2.92269944 -4.625 2.125 C-2.625 0.125 -2.625 0.125 0 0 Z " fill="#E0A24C" transform="translate(190.625,53.875)"/>
<path d="M0 0 C4.72837456 0.68607788 8.78954489 2.46392507 13.125 4.375 C13.84042969 4.67921875 14.55585938 4.9834375 15.29296875 5.296875 C16.32744141 5.74933594 16.32744141 5.74933594 17.3828125 6.2109375 C18.00559082 6.48212402 18.62836914 6.75331055 19.27001953 7.03271484 C21.197757 8.110572 22.51254125 9.37913177 24 11 C21.02277453 10.29666462 18.14743457 9.41751463 15.25 8.4375 C14.45078125 8.16808594 13.6515625 7.89867187 12.828125 7.62109375 C12.22484375 7.41613281 11.6215625 7.21117187 11 7 C11 6.34 11 5.68 11 5 C10.37351563 4.89042969 9.74703125 4.78085937 9.1015625 4.66796875 C7.87566406 4.43013672 7.87566406 4.43013672 6.625 4.1875 C5.81289062 4.03667969 5.00078125 3.88585938 4.1640625 3.73046875 C2 3 2 3 0 0 Z " fill="#D8A358" transform="translate(199,41)"/>
<path d="M0 0 C1 2 1 2 0.25 4.875 C-1 8 -1 8 -2.5625 10 C-4.42232662 12.58758486 -4.64463991 14.87283125 -5 18 C-6.32 18 -7.64 18 -9 18 C-7.65072455 13.46152802 -5.80840652 9.68067754 -3.375 5.625 C-2.74335937 4.56539063 -2.11171875 3.50578125 -1.4609375 2.4140625 C-0.73777344 1.21910156 -0.73777344 1.21910156 0 0 Z " fill="#EBCC49" transform="translate(68,90)"/>
<path d="M0 0 C0 1.32 0 2.64 0 4 C-1.65 4.33 -3.3 4.66 -5 5 C-5.33 4.01 -5.66 3.02 -6 2 C-6.99 3.485 -6.99 3.485 -8 5 C-8.66 5 -9.32 5 -10 5 C-10 3.02 -10 1.04 -10 -1 C-6.18510326 -2.46726798 -3.70988378 -1.43336419 0 0 Z " fill="#EA912E" transform="translate(234,59)"/>
<path d="M0 0 C0.99 0.33 1.98 0.66 3 1 C3 11.23 3 21.46 3 32 C2.67 32 2.34 32 2 32 C1.97494385 31.22809326 1.9498877 30.45618652 1.92407227 29.66088867 C1.80815993 26.16958819 1.68541176 22.67856078 1.5625 19.1875 C1.52318359 17.97255859 1.48386719 16.75761719 1.44335938 15.50585938 C1.40146484 14.34248047 1.35957031 13.17910156 1.31640625 11.98046875 C1.27974854 10.90692139 1.24309082 9.83337402 1.20532227 8.72729492 C1.10458153 5.90688447 1.10458153 5.90688447 0 3 C-0.99 3.66 -1.98 4.32 -3 5 C-1.125 1.125 -1.125 1.125 0 0 Z " fill="#D2AB55" transform="translate(157,170)"/>
<path d="M0 0 C0.66 0 1.32 0 2 0 C1.83007387 8.12555866 0.11704678 13.99646286 -4 21 C-4.33 21 -4.66 21 -5 21 C-5 19.02 -5 17.04 -5 15 C-4.01 14.67 -3.02 14.34 -2 14 C-1.34 9.38 -0.68 4.76 0 0 Z " fill="#D8A741" transform="translate(157,203)"/>
<path d="M0 0 C0.6328125 1.84765625 0.6328125 1.84765625 1 4 C-1.125 6.4375 -1.125 6.4375 -4 9 C-4.886875 9.928125 -5.77375 10.85625 -6.6875 11.8125 C-9 14 -9 14 -11 14 C-11.33 15.65 -11.66 17.3 -12 19 C-12.93423645 15.98968256 -13.04449911 15.13349732 -12 12 C-11.01 11.67 -10.02 11.34 -9 11 C-7.37468352 9.20064272 -5.81921756 7.33727432 -4.3125 5.4375 C-3.50425781 4.42558594 -2.69601563 3.41367188 -1.86328125 2.37109375 C-1.24839844 1.58863281 -0.63351563 0.80617188 0 0 Z " fill="#E9BF21" transform="translate(94,84)"/>
<path d="M0 0 C2.125 0.9375 2.125 0.9375 4 2 C3.67 3.32 3.34 4.64 3 6 C2.01 6 1.02 6 0 6 C-0.0825 6.78375 -0.165 7.5675 -0.25 8.375 C-1 11 -1 11 -3.0625 12.3125 C-4.0215625 12.6528125 -4.0215625 12.6528125 -5 13 C-4 10 -3 7 -2 4 C-2 3.01 -2 2.02 -2 1 C-1.34 0.67 -0.68 0.34 0 0 Z " fill="#ECAC20" transform="translate(140,128)"/>
<path d="M0 0 C0.61328125 1.859375 0.61328125 1.859375 1 4 C-0.8125 6.25 -0.8125 6.25 -3 8 C-3.66 8 -4.32 8 -5 8 C-5.26554688 8.58265625 -5.53109375 9.1653125 -5.8046875 9.765625 C-7.03302996 12.06174228 -8.40314939 13.80356018 -10.125 15.75 C-10.93324219 16.67039063 -10.93324219 16.67039063 -11.7578125 17.609375 C-12.16773438 18.06828125 -12.57765625 18.5271875 -13 19 C-13.66 18.67 -14.32 18.34 -15 18 C-14.50371094 17.45472656 -14.00742188 16.90945312 -13.49609375 16.34765625 C-8.7459724 11.07475115 -4.28137818 5.65944679 0 0 Z " fill="#DDB04D" transform="translate(149,180)"/>
<path d="M0 0 C0 3 0 3 -1 6 C-1.804375 6.28875 -2.60875 6.5775 -3.4375 6.875 C-6.21840072 7.73721759 -6.21840072 7.73721759 -6.9375 10.375 C-8.39999376 13.98821988 -10.71168276 15.06990075 -14 17 C-14.66 16.67 -15.32 16.34 -16 16 C-15.54109375 15.63648438 -15.0821875 15.27296875 -14.609375 14.8984375 C-10.56820895 11.58739809 -7.87111022 8.40236901 -5 4 C-2.25 1.625 -2.25 1.625 0 0 Z " fill="#ECAB2B" transform="translate(149,184)"/>
<path d="M0 0 C0.66 0.66 1.32 1.32 2 2 C0.68 2.33 -0.64 2.66 -2 3 C-2.33 4.32 -2.66 5.64 -3 7 C-5.31 7.66 -7.62 8.32 -10 9 C-10 9.66 -10 10.32 -10 11 C-12 12.625 -12 12.625 -14 14 C-14.66 13.67 -15.32 13.34 -16 13 C-5.62642369 3.40546697 -5.62642369 3.40546697 0 0 Z " fill="#E5C64D" transform="translate(104,53)"/>
<path d="M0 0 C0.66 0.33 1.32 0.66 2 1 C-6.72378764 10.11343572 -6.72378764 10.11343572 -11 12 C-11.66 11.67 -12.32 11.34 -13 11 C-11.68 10.34 -10.36 9.68 -9 9 C-9.33 8.01 -9.66 7.02 -10 6 C-9 5 -9 5 -6.4375 4.9375 C-5.2309375 4.9684375 -5.2309375 4.9684375 -4 5 C-4 4.34 -4 3.68 -4 3 C-2 1.375 -2 1.375 0 0 Z " fill="#DCA63E" transform="translate(150,224)"/>
<path d="M0 0 C0.33 0 0.66 0 1 0 C1 7.26 1 14.52 1 22 C1.66 22.33 2.32 22.66 3 23 C1.35 22.67 -0.3 22.34 -2 22 C-1.86181468 18.52048477 -1.71317399 15.04149505 -1.5625 11.5625 C-1.52318359 10.56927734 -1.48386719 9.57605469 -1.44335938 8.55273438 C-1.40146484 7.60849609 -1.35957031 6.66425781 -1.31640625 5.69140625 C-1.27974854 4.81685791 -1.24309082 3.94230957 -1.20532227 3.04125977 C-1 1 -1 1 0 0 Z " fill="#E3CE60" transform="translate(70,135)"/>
<path d="M0 0 C0.86625 0.3403125 0.86625 0.3403125 1.75 0.6875 C1.75 1.3475 1.75 2.0075 1.75 2.6875 C0.76 2.6875 -0.23 2.6875 -1.25 2.6875 C-1.25 3.3475 -1.25 4.0075 -1.25 4.6875 C0.4 4.6875 2.05 4.6875 3.75 4.6875 C3.42 5.3475 3.09 6.0075 2.75 6.6875 C-4 5.8125 -4 5.8125 -6.25 4.6875 C-6.25 4.0275 -6.25 3.3675 -6.25 2.6875 C-3.02697842 -0.42041367 -3.02697842 -0.42041367 0 0 Z " fill="#E49A39" transform="translate(204.25,231.3125)"/>
<path d="M0 0 C2.31 0.33 4.62 0.66 7 1 C7 1.66 7 2.32 7 3 C7.598125 3.12375 8.19625 3.2475 8.8125 3.375 C11 4 11 4 14 6 C13.01 7.485 13.01 7.485 12 9 C10.55962331 8.06692579 9.12281015 7.12834923 7.6875 6.1875 C6.48673828 5.40439453 6.48673828 5.40439453 5.26171875 4.60546875 C3.2762598 3.19610151 1.6508148 1.77903343 0 0 Z " fill="#E4B848" transform="translate(110,140)"/>
<path d="M0 0 C0.45890625 0.40992188 0.9178125 0.81984375 1.390625 1.2421875 C2.00421875 1.78101563 2.6178125 2.31984375 3.25 2.875 C3.85328125 3.40867188 4.4565625 3.94234375 5.078125 4.4921875 C8.44417814 7.13303407 10.95119252 8.26829358 15.25 8.125 C16.4875 8.08375 17.725 8.0425 19 8 C18.67 8.66 18.34 9.32 18 10 C8.99905527 10.78649032 8.99905527 10.78649032 5.0625 7.6875 C4.381875 6.800625 3.70125 5.91375 3 5 C2.401875 4.443125 1.80375 3.88625 1.1875 3.3125 C0 2 0 2 0 0 Z " fill="#D8A350" transform="translate(196,192)"/>
<path d="M0 0 C0 0.66 0 1.32 0 2 C0.99 1.67 1.98 1.34 3 1 C3 1.66 3 2.32 3 3 C2.40832031 3.18175781 1.81664062 3.36351563 1.20703125 3.55078125 C-3.25866357 4.97135301 -6.97976113 6.56349159 -11 9 C-11.66 8.67 -12.32 8.34 -13 8 C-11.5433323 6.85204994 -10.08461063 5.70670581 -8.625 4.5625 C-7.40683594 3.60537109 -7.40683594 3.60537109 -6.1640625 2.62890625 C-2.67146283 0 -2.67146283 0 0 0 Z " fill="#E4B44C" transform="translate(140,81)"/>
<path d="M0 0 C1.65 0.99 3.3 1.98 5 3 C4.34 3.66 3.68 4.32 3 5 C2.67 5 2.34 5 2 5 C2 5.66 2 6.32 2 7 C0.68 6.67 -0.64 6.34 -2 6 C-2 5.34 -2 4.68 -2 4 C-4.475 3.01 -4.475 3.01 -7 2 C-3.98968256 1.06576355 -3.13349732 0.95550089 0 2 C0 1.34 0 0.68 0 0 Z " fill="#EC902A" transform="translate(222,64)"/>
<path d="M0 0 C0.598125 0.20625 1.19625 0.4125 1.8125 0.625 C0.84570312 0.89957031 0.84570312 0.89957031 -0.140625 1.1796875 C-2.56194944 2.53311895 -2.56194944 2.53311895 -2.796875 5.8828125 C-2.84328125 7.15898437 -2.8896875 8.43515625 -2.9375 9.75 C-2.99421875 11.03132812 -3.0509375 12.31265625 -3.109375 13.6328125 C-3.13515625 14.62023437 -3.1609375 15.60765625 -3.1875 16.625 C-3.5175 16.625 -3.8475 16.625 -4.1875 16.625 C-5.0916966 13.23426276 -5.33642391 9.92967897 -5.4375 6.4375 C-5.46328125 5.57769531 -5.4890625 4.71789062 -5.515625 3.83203125 C-5.40734375 3.10371094 -5.2990625 2.37539062 -5.1875 1.625 C-2.1875 -0.375 -2.1875 -0.375 0 0 Z " fill="#E2BE52" transform="translate(88.1875,185.375)"/>
<path d="M0 0 C0.33 0 0.66 0 1 0 C0.59686466 5.96215955 0.14400291 11.37199235 -2 17 C-2.36106097 18.66088045 -2.70462173 20.32618981 -3 22 C-3.33 22 -3.66 22 -4 22 C-4.32863106 14.44148571 -3.2225559 6.90547693 0 0 Z " fill="#F4C316" transform="translate(56,122)"/>
<path d="M0 0 C0.639375 0.165 1.27875 0.33 1.9375 0.5 C7.63134491 1.42960733 13.38940676 1.44789503 19 0 C15.79740055 3.20259945 12.60532505 3.70151698 8.26171875 4.08203125 C4.99312244 3.96348112 2.71613619 2.74111294 0 1 C0 0.67 0 0.34 0 0 Z " fill="#CE884A" transform="translate(265,147)"/>
<path d="M0 0 C0.66 0.66 1.32 1.32 2 2 C5.59679066 1.67673447 5.59679066 1.67673447 9 1 C10.5625 3.375 10.5625 3.375 12 6 C11.67 6.66 11.34 7.32 11 8 C10.01 7.67 9.02 7.34 8 7 C8 6.34 8 5.68 8 5 C5.03 4.67 2.06 4.34 -1 4 C-0.67 2.68 -0.34 1.36 0 0 Z " fill="#F0B820" transform="translate(109,136)"/>
<path d="M0 0 C0.66 0.33 1.32 0.66 2 1 C1.2575 1.474375 0.515 1.94875 -0.25 2.4375 C-3.86201023 5.80323681 -5.25977449 9.45013665 -7 14 C-7.82273185 11.63265545 -8.10990889 10.35737246 -7.36328125 7.9296875 C-7.01652344 7.25164062 -6.66976562 6.57359375 -6.3125 5.875 C-5.97863281 5.19179687 -5.64476563 4.50859375 -5.30078125 3.8046875 C-3.74914462 1.65196641 -2.49062527 0.87442071 0 0 Z " fill="#F1B325" transform="translate(116,108)"/>
<path d="M0 0 C0.66 0.66 1.32 1.32 2 2 C-1.21232125 3.07077375 -3.63937807 3 -7 3 C-10.11785113 3.64644661 -10.11785113 3.64644661 -11 6 C-11 5.34 -11 4.68 -11 4 C-11.66 3.67 -12.32 3.34 -13 3 C-8.51982193 -0.36013356 -5.41184254 -0.44359365 0 0 Z " fill="#E08A40" transform="translate(257,74)"/>
<path d="M0 0 C1.890625 0.23828125 1.890625 0.23828125 4 1 C6.58146072 5.57535016 7.39960692 10.80511002 7 16 C5.26400675 12.6578074 3.81239108 9.22999945 2.375 5.75 C1.92898437 4.67234375 1.48296875 3.5946875 1.0234375 2.484375 C0.68570313 1.66453125 0.34796875 0.8446875 0 0 Z " fill="#E4A457" transform="translate(215,169)"/>
<path d="M0 0 C0.33 0 0.66 0 1 0 C1.33 2.64 1.66 5.28 2 8 C2.99 8 3.98 8 5 8 C5 10.31 5 12.62 5 15 C2 14 2 14 0 11 C-0.1953125 8.30078125 -0.1953125 8.30078125 -0.125 5.3125 C-0.10695312 4.31863281 -0.08890625 3.32476562 -0.0703125 2.30078125 C-0.04710937 1.54152344 -0.02390625 0.78226563 0 0 Z " fill="#F6C314" transform="translate(50,160)"/>
<path d="M0 0 C0.66 0 1.32 0 2 0 C1.34 5.28 0.68 10.56 0 16 C-0.66 16 -1.32 16 -2 16 C-1.85975781 13.52039864 -1.7130815 11.04147598 -1.5625 8.5625 C-1.52318359 7.85544922 -1.48386719 7.14839844 -1.44335938 6.41992188 C-1.11328125 1.11328125 -1.11328125 1.11328125 0 0 Z " fill="#EEC331" transform="translate(52,128)"/>
<path d="M0 0 C0.66 0 1.32 0 2 0 C0.84941444 5.39795989 -0.42421759 10.70987333 -2 16 C-2.33 16 -2.66 16 -3 16 C-3.37851209 10.06997733 -2.10575375 5.52760359 0 0 Z " fill="#E2C550" transform="translate(74,119)"/>
<path d="M0 0 C1.43836751 0.11458693 2.87570966 0.24209116 4.3125 0.375 C5.51326172 0.47941406 5.51326172 0.47941406 6.73828125 0.5859375 C9 1 9 1 12 3 C12 3.66 12 4.32 12 5 C9.9375 5.8125 9.9375 5.8125 7 6 C4.42776878 4.62353742 2.16251431 2.95685733 0 1 C0 0.67 0 0.34 0 0 Z " fill="#E19639" transform="translate(221,71)"/>
<path d="M0 0 C1.65 0 3.3 0 5 0 C5.33 1.98 5.66 3.96 6 6 C4.02 6.99 4.02 6.99 2 8 C0.23537317 4.91190305 0 3.76687864 0 0 Z " fill="#F6BA0F" transform="translate(90,207)"/>
<path d="M0 0 C-0.33 0.99 -0.66 1.98 -1 3 C-2.093125 3.12375 -3.18625 3.2475 -4.3125 3.375 C-8.07381802 3.75464801 -8.07381802 3.75464801 -11 6 C-13.26171875 5.9765625 -13.26171875 5.9765625 -15.6875 5.625 C-16.49574219 5.51414063 -17.30398437 5.40328125 -18.13671875 5.2890625 C-19.05904297 5.14597656 -19.05904297 5.14597656 -20 5 C-20 4.67 -20 4.34 -20 4 C-19.33613281 3.96261719 -18.67226562 3.92523438 -17.98828125 3.88671875 C-11.47801067 3.40201247 -6.20795643 -0.53211055 0 0 Z " fill="#E79533" transform="translate(224,198)"/>
<path d="M0 0 C1.41823316 0.08006155 2.83603027 0.17654137 4.25 0.3125 C0.517612 3.88261026 -3.8449989 4.42163442 -8.75 5.3125 C-6.33348981 1.10987358 -4.73606739 -0.03729187 0 0 Z " fill="#E5B849" transform="translate(108.75,167.6875)"/>
<path d="M0 0 C3.2428329 3.72925783 5.5119901 8.30238735 7 13 C6.67 13.99 6.34 14.98 6 16 C0 5.8 0 5.8 0 0 Z " fill="#CC894C" transform="translate(249,153)"/>
<path d="M0 0 C5.56890517 0.47986031 10.67067568 1.29915181 16 3 C11.68552447 4.20883939 7.45283897 4.64937235 3 4 C0.9375 2 0.9375 2 0 0 Z " fill="#E2A955" transform="translate(183,37)"/>
<path d="M0 0 C0.99 0.33 1.98 0.66 3 1 C-1.23048048 6.68093093 -1.23048048 6.68093093 -4.5625 8.0625 C-7.61622536 7.98419935 -8.7937818 7.04279463 -11 5 C-9.88625 5.061875 -8.7725 5.12375 -7.625 5.1875 C-6.42875 5.125625 -5.2325 5.06375 -4 5 C-3.34 4.01 -2.68 3.02 -2 2 C-1.34 2 -0.68 2 0 2 C0 1.34 0 0.68 0 0 Z " fill="#D8A84F" transform="translate(134,144)"/>
<path d="M0 0 C0.33 0.99 0.66 1.98 1 3 C-0.6171875 5.41015625 -0.6171875 5.41015625 -2.875 8.0625 C-5.73101818 11.33770316 -5.73101818 11.33770316 -8 15 C-8.66 14.67 -9.32 14.34 -10 14 C-6.7 9.38 -3.4 4.76 0 0 Z " fill="#E9C661" transform="translate(115,104)"/>
<path d="M0 0 C0.66 0.33 1.32 0.66 2 1 C1.57811541 2.8161982 1.13700835 4.62794073 0.6875 6.4375 C0.44386719 7.44683594 0.20023437 8.45617187 -0.05078125 9.49609375 C-0.36402344 10.32238281 -0.67726563 11.14867188 -1 12 C-1.99 12.33 -2.98 12.66 -4 13 C-4 11.02 -4 9.04 -4 7 C-3.34 7 -2.68 7 -2 7 C-1.34 4.69 -0.68 2.38 0 0 Z " fill="#ECBF21" transform="translate(77,107)"/>
<path d="M0 0 C-5.445 4.455 -5.445 4.455 -11 9 C-11 5.29588166 -10.24698231 3.921077 -8 1 C-2.7311828 -1.3655914 -2.7311828 -1.3655914 0 0 Z " fill="#E3C449" transform="translate(116,70)"/>
<path d="M0 0 C0.99386719 0.00902344 1.98773438 0.01804688 3.01171875 0.02734375 C4.15060547 0.04474609 4.15060547 0.04474609 5.3125 0.0625 C4.9825 0.7225 4.6525 1.3825 4.3125 2.0625 C1.58984375 2.4765625 1.58984375 2.4765625 -1.75 2.6875 C-2.85472656 2.76226562 -3.95945313 2.83703125 -5.09765625 2.9140625 C-5.95230469 2.96304688 -6.80695313 3.01203125 -7.6875 3.0625 C-8.0175 2.4025 -8.3475 1.7425 -8.6875 1.0625 C-5.53819107 0.01273036 -3.29935544 -0.03881595 0 0 Z " fill="#E4B344" transform="translate(153.6875,52.9375)"/>
<path d="M0 0 C-4.51350747 3.52273754 -7.28341664 4.45732667 -13 4 C-9.80252047 -0.13791468 -4.89181987 -1.63060662 0 0 Z " fill="#E7BB3C" transform="translate(119,49)"/>
<path d="M0 0 C2.5 1.1875 2.5 1.1875 5 3 C5.625 5.4375 5.625 5.4375 5 8 C0.89189189 12 0.89189189 12 -2 12 C-1.67 11.01 -1.34 10.02 -1 9 C-0.01 8.67 0.98 8.34 2 8 C2.33 6.35 2.66 4.7 3 3 C2.01 2.67 1.02 2.34 0 2 C0 1.34 0 0.68 0 0 Z " fill="#D6B14F" transform="translate(115,156)"/>
<path d="M0 0 C0.7650446 2.48639495 0.98396928 4.24580443 0.8125 6.875 C1.05258499 10.87641656 2.67757881 12.80667087 5 16 C5 16.66 5 17.32 5 18 C2 17 2 17 0.3125 14.4375 C-1.5960172 9.43900257 -1.71902366 5.15707097 0 0 Z " fill="#DA9B6C" transform="translate(260,129)"/>
<path d="M0 0 C0.99 0.33 1.98 0.66 3 1 C3 1.66 3 2.32 3 3 C-2.2734375 6.22265625 -2.2734375 6.22265625 -4 7 C-4.66 6.67 -5.32 6.34 -6 6 C-4.11664197 3.17496295 -2.85817101 1.73222485 0 0 Z " fill="#EEAA26" transform="translate(138,230)"/>
<path d="M0 0 C0.66 0 1.32 0 2 0 C2.53394179 1.4117783 3.05165104 2.82970244 3.5625 4.25 C3.85253906 5.03890625 4.14257812 5.8278125 4.44140625 6.640625 C5.04522837 9.19103452 4.8473932 10.55322229 4 13 C3.32694982 11.39850114 2.66177773 9.79368971 2 8.1875 C1.62875 7.29417969 1.2575 6.40085938 0.875 5.48046875 C0 3 0 3 0 0 Z " fill="#E3BE4B" transform="translate(85,203)"/>
<path d="M0 0 C0.66 0.33 1.32 0.66 2 1 C-0.31 4.3 -2.62 7.6 -5 11 C-5.33 9.68 -5.66 8.36 -6 7 C-5.34 7 -4.68 7 -4 7 C-3.67 5.35 -3.34 3.7 -3 2 C-2.01 2 -1.02 2 0 2 C0 1.34 0 0.68 0 0 Z " fill="#D7AF3F" transform="translate(143,132)"/>
<path d="M0 0 C-5.36439644 2.68219822 -9.01006953 3.3152595 -15 3 C-12.41464321 1.27642881 -10.96188386 0.55264982 -8.0625 -0.1875 C-7.39347656 -0.36667969 -6.72445312 -0.54585937 -6.03515625 -0.73046875 C-3.75319112 -1.03268678 -2.17973341 -0.68756692 0 0 Z " fill="#E3BF5A" transform="translate(146,38)"/>
<path d="M0 0 C-1.43011973 0.86646667 -2.86940619 1.71781829 -4.3125 2.5625 C-5.51326172 3.27599609 -5.51326172 3.27599609 -6.73828125 4.00390625 C-9 5 -9 5 -12 4 C-11.67 3.34 -11.34 2.68 -11 2 C-9.35 2 -7.7 2 -6 2 C-6 1.34 -6 0.68 -6 0 C-3 -1 -3 -1 0 0 Z " fill="#DD934A" transform="translate(236,232)"/>
<path d="M0 0 C2.93697877 0.62935259 5.48752634 1.32501756 8 3 C9.25 5.625 9.25 5.625 10 8 C6.05205855 6.32971708 3.18203882 3.8204435 0 1 C0 0.67 0 0.34 0 0 Z " fill="#DAA249" transform="translate(188,227)"/>
<path d="M0 0 C0.33 0.99 0.66 1.98 1 3 C1.804375 3.309375 2.60875 3.61875 3.4375 3.9375 C6 5 6 5 7.3125 7.125 C7.539375 7.74375 7.76625 8.3625 8 9 C6.35 8.67 4.7 8.34 3 8 C2.67 6.68 2.34 5.36 2 4 C1.34 4 0.68 4 0 4 C0 2.68 0 1.36 0 0 Z " fill="#E89F2E" transform="translate(190,187)"/>
<path d="M0 0 C3.49928164 2.33285443 3.6329098 3.20795069 4.6875 7.125 C4.93886719 8.03507813 5.19023437 8.94515625 5.44921875 9.8828125 C5.72185547 10.93082031 5.72185547 10.93082031 6 12 C4.04296875 11.21484375 4.04296875 11.21484375 2 10 C1.3125 6.5625 1.3125 6.5625 1 3 C0.67 2.01 0.34 1.02 0 0 Z " fill="#E49A3E" transform="translate(211,157)"/>
<path d="M0 0 C1.25127906 3.54667178 0.72285053 5.72253438 -0.4375 9.25 C-0.72496094 10.14203125 -1.01242188 11.0340625 -1.30859375 11.953125 C-1.53675781 12.62859375 -1.76492187 13.3040625 -2 14 C-2.66 14 -3.32 14 -4 14 C-3.855625 13.43667969 -3.71125 12.87335938 -3.5625 12.29296875 C-2.80034742 9.18613844 -2.15587205 6.0565455 -1.5 2.92578125 C-1 1 -1 1 0 0 Z " fill="#EEC01F" transform="translate(72,120)"/>
<path d="M0 0 C-0.33 0.99 -0.66 1.98 -1 3 C-2.5778125 3.2165625 -2.5778125 3.2165625 -4.1875 3.4375 C-7.15460549 3.87526966 -10.06794366 4.37804866 -13 5 C-9.08944645 1.69107007 -5.15517315 0 0 0 Z " fill="#DAAC4F" transform="translate(153,76)"/>
<path d="M0 0 C0 3.70411834 -0.75301769 5.078923 -3 8 C-6.1875 9.3125 -6.1875 9.3125 -9 10 C-8.06409496 8.8944811 -7.12620142 7.79064547 -6.1875 6.6875 C-5.66542969 6.07261719 -5.14335938 5.45773438 -4.60546875 4.82421875 C-3.12827531 3.14575321 -1.59960869 1.56117966 0 0 Z " fill="#E9C753" transform="translate(87,67)"/>
<path d="M0 0 C0.66 0.33 1.32 0.66 2 1 C0.19587357 4.26460973 -0.83394693 5.88929795 -4 8 C-4.33 7.01 -4.66 6.02 -5 5 C-3.35 3.35 -1.7 1.7 0 0 Z " fill="#EEBC1E" transform="translate(92,64)"/>
<path d="M0 0 C3.59075147 1.33370769 6.84621398 2.80987082 10 5 C10.33 5.99 10.66 6.98 11 8 C6.40378078 6.5129879 3.53027653 4.20187872 0 1 C0 0.67 0 0.34 0 0 Z " fill="#E4C64E" transform="translate(98,227)"/>
<path d="M0 0 C0.99 0.33 1.98 0.66 3 1 C2.04882866 2.1725131 1.08882991 3.33787015 0.125 4.5 C-0.40867188 5.1496875 -0.94234375 5.799375 -1.4921875 6.46875 C-1.98976562 6.9740625 -2.48734375 7.479375 -3 8 C-3.66 8 -4.32 8 -5 8 C-5 7.34 -5 6.68 -5 6 C-4.34 6 -3.68 6 -3 6 C-2.690625 5.195625 -2.38125 4.39125 -2.0625 3.5625 C-1 1 -1 1 0 0 Z " fill="#D08948" transform="translate(245,220)"/>
<path d="M0 0 C0 2.97 0 5.94 0 9 C-0.33 9 -0.66 9 -1 9 C-1.33 6.69 -1.66 4.38 -2 2 C-4.31 1.67 -6.62 1.34 -9 1 C-5.64919071 -1.10976881 -3.77897651 -1.0497157 0 0 Z " fill="#DAB75B" transform="translate(115,180)"/>
<path d="M0 0 C1.65 0 3.3 0 5 0 C3.70700306 2.88437779 2.34058637 4.87219421 0 7 C0 4.69 0 2.38 0 0 Z " fill="#F1C318" transform="translate(59,108)"/>
<path d="M0 0 C0.66 0.33 1.32 0.66 2 1 C2.25 3.75 2.25 3.75 2 7 C0 9.375 0 9.375 -2 11 C-2 9.35 -2 7.7 -2 6 C-1.01 5.67 -0.02 5.34 1 5 C0.67 3.35 0.34 1.7 0 0 Z " fill="#D39751" transform="translate(239,64)"/>
<path d="M0 0 C0.99 0.33 1.98 0.66 3 1 C2.42655063 3.86724686 2.1385485 4.8614515 0 7 C-2.125 6.625 -2.125 6.625 -4 6 C-3 4 -3 4 0 2 C0 1.34 0 0.68 0 0 Z " fill="#EEBF23" transform="translate(105,52)"/>
<path d="M0 0 C0.66 0 1.32 0 2 0 C0.69386058 3.91841827 -0.83129848 6.32640809 -4 9 C-4.66 9 -5.32 9 -6 9 C-5.6875 7.0625 -5.6875 7.0625 -5 5 C-4.01 4.67 -3.02 4.34 -2 4 C-0.79117904 1.99983534 -0.79117904 1.99983534 0 0 Z " fill="#DB9960" transform="translate(269,98)"/>
<path d="M0 0 C0.66 0.33 1.32 0.66 2 1 C0.71937515 2.7074998 -0.61767557 4.37373596 -2 6 C-2.66 6 -3.32 6 -4 6 C-4 6.66 -4 7.32 -4 8 C-4.66 8 -5.32 8 -6 8 C-4.73058503 4.08597051 -3.48832306 2.20927127 0 0 Z " fill="#EDC31F" transform="translate(74,86)"/>
<path d="M0 0 C0.99 0.33 1.98 0.66 3 1 C3 2.98 3 4.96 3 7 C1 6 1 6 0 3 C-0.99 3.66 -1.98 4.32 -3 5 C-1.125 1.125 -1.125 1.125 0 0 Z " fill="#D8B262" transform="translate(157,170)"/>
<path d="M0 0 C0.66 0.33 1.32 0.66 2 1 C2.625 4.0625 2.625 4.0625 3 7 C2.01 7.495 2.01 7.495 1 8 C0.01 6.68 -0.98 5.36 -2 4 C-1.34 2.68 -0.68 1.36 0 0 Z " fill="#E58B2E" transform="translate(243,144)"/>
<path d="M0 0 C0.33 0 0.66 0 1 0 C1 2.64 1 5.28 1 8 C-0.32 8.33 -1.64 8.66 -3 9 C-2.01 6.03 -1.02 3.06 0 0 Z " fill="#EACD51" transform="translate(58,108)"/>
<path d="M0 0 C4.7517398 0.43197635 6.92000054 1.32769295 10 5 C5.75354935 5 3.61475228 3.18249194 0 1 C0 0.67 0 0.34 0 0 Z " fill="#DA9E4C" transform="translate(211,65)"/>
<path d="M0 0 C1.98 0 3.96 0 6 0 C6 0.66 6 1.32 6 2 C7.32 2.33 8.64 2.66 10 3 C10 3.66 10 4.32 10 5 C9.01 5 8.02 5 7 5 C7 4.34 7 3.68 7 3 C5.824375 2.814375 5.824375 2.814375 4.625 2.625 C2 2 2 2 0 0 Z " fill="#E39433" transform="translate(204,60)"/>
<path d="M0 0 C1.24546405 2.49092811 0.7767578 3.41080733 0 6 C-1.98 6 -3.96 6 -6 6 C-6 5.34 -6 4.68 -6 4 C-4.03852126 2.61061923 -2.03833424 1.2739589 0 0 Z " fill="#E08D30" transform="translate(249,215)"/>
<path d="M0 0 C0.66 0 1.32 0 2 0 C0.68775452 3.93673644 -0.91910327 6.22719294 -4 9 C-3.67 7.35 -3.34 5.7 -3 4 C-2.34 4 -1.68 4 -1 4 C-0.67 2.68 -0.34 1.36 0 0 Z " fill="#CC8546" transform="translate(253,210)"/>
<path d="M0 0 C2.31 0.33 4.62 0.66 7 1 C6.01 2.485 6.01 2.485 5 4 C2.03 3.505 2.03 3.505 -1 3 C-0.67 2.01 -0.34 1.02 0 0 Z " fill="#E9B51E" transform="translate(94,170)"/>
<path d="M0 0 C0.99 0.33 1.98 0.66 3 1 C4.28317892 4.84953676 4.06643637 7.94738135 4 12 C3.67 12 3.34 12 3 12 C2 8 1 4 0 0 Z " fill="#CE8F5A" transform="translate(285,128)"/>
<path d="M0 0 C1.21386936 3.64160808 0.6674695 4.33165469 -0.9375 7.6875 C-1.31777344 8.49574219 -1.69804688 9.30398437 -2.08984375 10.13671875 C-2.39019531 10.75160156 -2.69054687 11.36648437 -3 12 C-4.46538911 7.57452487 -3.0196077 5.11689261 -1 1 C-0.67 0.67 -0.34 0.34 0 0 Z " fill="#E7BF47" transform="translate(104,120)"/>
<path d="M0 0 C0.91007813 0.10183594 1.82015625 0.20367187 2.7578125 0.30859375 C3.45648438 0.39238281 4.15515625 0.47617187 4.875 0.5625 C4.875 0.8925 4.875 1.2225 4.875 1.5625 C-0.075 1.8925 -5.025 2.2225 -10.125 2.5625 C-6.08912363 -0.12808425 -4.75060299 -0.5481465 0 0 Z " fill="#E7B73C" transform="translate(153.125,36.4375)"/>
<path d="M0 0 C2 2 2 2 2.5 4.5625 C2.665 5.366875 2.83 6.17125 3 7 C3.66 7.33 4.32 7.66 5 8 C3.35 7.67 1.7 7.34 0 7 C0 4.69 0 2.38 0 0 Z " fill="#DDB84D" transform="translate(68,150)"/>
<path d="M0 0 C-1.36983503 3.16115776 -1.9890638 3.9927092 -5 6 C-5 4.35 -5 2.7 -5 1 C-2 0 -2 0 0 0 Z " fill="#E6C63A" transform="translate(100,82)"/>
</svg>
